<svg width="1110" height="749" viewBox="0 0 1110 749" fill="none" xmlns="http://www.w3.org/2000/svg">
<rect width="1110" height="749" fill="#E5E5E5"/>
<g id="nigth-me 1" clip-path="url(#clip0)">
<path id="Vector" d="M1106.75 540.58C1106.75 584.95 862.51 748.34 557.48 748.34C252.45 748.34 12.34 574.22 12.34 529.85C12.34 485.48 252.45 587.64 557.48 587.64C862.51 587.64 1106.75 496.17 1106.75 540.58Z" fill="#3F3D56"/>
<path id="Vector_2" d="M1109.78 522.87C1109.78 523.46 1109.78 524.05 1109.78 524.65C1109.11 543.09 1098.84 561.43 1080.1 574.38C1060.22 588.1 1033.56 595.32 1006.19 599.93C1001.91 600.65 997.61 601.3 993.32 601.93C991.13 602.23 988.95 602.53 986.78 602.81C925.85 610.81 863.64 612.34 801.72 613.81C736.95 615.41 672.12 616.99 607.28 617.81L594.42 617.96C496.04 619.02 397.7 618.13 299.68 612.55C269.26 610.83 238.54 608.55 208.38 604.71C204.08 604.183 199.793 603.607 195.52 602.98C155.52 597.25 116.71 588.46 81.35 574.19C73.0028 570.858 64.8381 567.086 56.89 562.89C34.68 551.1 15.95 536.19 6.68 517.89C1.28755 507.161 -0.932645 495.116 0.279999 483.17C0.67661 478.827 1.42235 474.523 2.51 470.3C5.29804 459.851 9.55016 449.848 15.14 440.59C29.58 416.17 51.27 394.28 69.97 371.35C109.89 322.48 135.89 260.73 99.05 210.64C88.48 196.25 73.2 183.64 64.59 168.59C59.9841 160.46 57.1105 151.465 56.15 142.17C55.6826 137.897 55.5055 133.597 55.62 129.3C56.0285 119.266 57.2829 109.283 59.37 99.46C65.37 68.74 76.58 35.62 111.2 16.46C134.83 3.37999 164.95 -0.680015 195.49 0.0899851C199.777 0.189985 204.063 0.389984 208.35 0.689984C220.06 1.45998 231.7 2.87998 242.94 4.68998C312.38 15.78 376.47 38.95 441.17 59.87C490.43 75.79 541.45 90.68 594.39 97.78C598.67 98.35 602.95 98.88 607.25 99.34C619.66 100.7 632.18 101.6 644.8 101.97C707.61 103.77 780.89 90.17 822.6 54.85C862.89 20.71 938.45 17.96 993.29 38.35L994.11 38.66C998.237 40.2333 1002.24 41.9267 1006.11 43.74C1046.52 62.74 1073.59 95.28 1077.41 129.33C1077.89 133.559 1078 137.821 1077.75 142.07C1077.76 142.113 1077.76 142.157 1077.75 142.2C1075.13 184.09 1040.89 219.27 1006.12 254.51C1001.82 258.86 997.51 263.21 993.25 267.59C981.97 279.17 971.04 290.84 961.56 302.85C957.231 308.294 953.25 314.005 949.64 319.95C946.322 325.433 943.488 331.195 941.17 337.17C938.725 343.355 937.153 349.851 936.5 356.47C935.525 365.958 937.259 375.527 941.5 384.07L941.59 384.27C950.87 402.67 970.51 415.71 993.25 427.27C997.44 429.41 1001.75 431.49 1006.12 433.55C1030.78 445.19 1057.35 456 1077.55 470.37C1083 474.157 1088.08 478.442 1092.73 483.17C1094.62 485.131 1096.41 487.19 1098.09 489.34C1105.47 498.659 1109.57 510.147 1109.77 522.03C1109.78 522.33 1109.78 522.6 1109.78 522.87Z" fill="#536DFE"/>
<path id="Vector_3" d="M1109.78 522.87C1109.78 523.46 1109.78 524.05 1109.78 524.65C1109.11 543.09 1098.84 561.43 1080.1 574.38C1060.22 588.1 1033.56 595.32 1006.19 599.93C1001.91 600.65 997.61 601.3 993.32 601.93C991.13 602.23 988.95 602.53 986.78 602.81C925.85 610.81 863.64 612.34 801.72 613.81C736.95 615.41 672.12 616.99 607.28 617.81L594.42 617.96C496.04 619.02 397.7 618.13 299.68 612.55C269.26 610.83 238.54 608.55 208.38 604.71C204.08 604.183 199.793 603.607 195.52 602.98C155.52 597.25 116.71 588.46 81.35 574.19C73.0028 570.858 64.8381 567.086 56.89 562.89C34.68 551.1 15.95 536.19 6.68 517.89C1.28755 507.161 -0.932645 495.116 0.279999 483.17C0.67661 478.827 1.42235 474.523 2.51 470.3C5.29804 459.851 9.55016 449.848 15.14 440.59C29.58 416.17 51.27 394.28 69.97 371.35C109.89 322.48 135.89 260.73 99.05 210.64C88.48 196.25 73.2 183.64 64.59 168.59C59.9841 160.46 57.1105 151.465 56.15 142.17C55.6826 137.897 55.5055 133.597 55.62 129.3C56.0285 119.266 57.2829 109.283 59.37 99.46C65.37 68.74 76.58 35.62 111.2 16.46C134.83 3.37999 164.95 -0.680015 195.49 0.0899851C199.777 0.189985 204.063 0.389984 208.35 0.689984C220.06 1.45998 231.7 2.87998 242.94 4.68998C312.38 15.78 376.47 38.95 441.17 59.87C490.43 75.79 541.45 90.68 594.39 97.78C598.67 98.35 602.95 98.88 607.25 99.34C619.66 100.7 632.18 101.6 644.8 101.97C707.61 103.77 780.89 90.17 822.6 54.85C862.89 20.71 938.45 17.96 993.29 38.35L994.11 38.66C998.237 40.2333 1002.24 41.9267 1006.11 43.74C1046.52 62.74 1073.59 95.28 1077.41 129.33C1077.89 133.559 1078 137.821 1077.75 142.07C1077.76 142.113 1077.76 142.157 1077.75 142.2C1075.13 184.09 1040.89 219.27 1006.12 254.51C1001.82 258.86 997.51 263.21 993.25 267.59C981.97 279.17 971.04 290.84 961.56 302.85C957.231 308.294 953.25 314.005 949.64 319.95C946.322 325.433 943.488 331.195 941.17 337.17C938.725 343.355 937.153 349.851 936.5 356.47C935.525 365.958 937.259 375.527 941.5 384.07L941.59 384.27C950.87 402.67 970.51 415.71 993.25 427.27C997.44 429.41 1001.75 431.49 1006.12 433.55C1030.78 445.19 1057.35 456 1077.55 470.37C1083 474.157 1088.08 478.442 1092.73 483.17C1094.62 485.131 1096.41 487.19 1098.09 489.34C1105.47 498.659 1109.57 510.147 1109.77 522.03C1109.78 522.33 1109.78 522.6 1109.78 522.87Z" fill="url(#paint0_linear)"/>
<path id="Vector_4" d="M1006.16 43.74V254.5C1001.86 258.86 997.55 263.21 993.29 267.59V38.35L1006.16 43.74Z" fill="#3F3D56"/>
<path id="Vector_5" d="M1077.8 142.07C1077.81 142.113 1077.81 142.157 1077.8 142.2H56.15C55.683 137.927 55.5059 133.627 55.62 129.33H1077.46C1077.94 133.559 1078.05 137.821 1077.8 142.07V142.07Z" fill="#3F3D56"/>
<path id="Vector_6" d="M241.32 75.56C243.391 75.56 245.07 73.8811 245.07 71.81C245.07 69.7389 243.391 68.06 241.32 68.06C239.249 68.06 237.57 69.7389 237.57 71.81C237.57 73.8811 239.249 75.56 241.32 75.56Z" fill="#E7EFFD"/>
<path id="Vector_7" d="M121.22 68.05C123.291 68.05 124.97 66.3711 124.97 64.3C124.97 62.2289 123.291 60.55 121.22 60.55C119.149 60.55 117.47 62.2289 117.47 64.3C117.47 66.3711 119.149 68.05 121.22 68.05Z" fill="#E7EFFD"/>
<path id="Vector_8" d="M283.68 73.42C284.569 73.42 285.29 72.6992 285.29 71.81C285.29 70.9208 284.569 70.2 283.68 70.2C282.791 70.2 282.07 70.9208 282.07 71.81C282.07 72.6992 282.791 73.42 283.68 73.42Z" fill="#E7EFFD"/>
<path id="Vector_9" d="M163.04 69.67C163.929 69.67 164.65 68.9492 164.65 68.06C164.65 67.1708 163.929 66.45 163.04 66.45C162.151 66.45 161.43 67.1708 161.43 68.06C161.43 68.9492 162.151 69.67 163.04 69.67Z" fill="#E7EFFD"/>
<path id="Vector_10" d="M161.44 182.12C162.329 182.12 163.05 181.399 163.05 180.51C163.05 179.621 162.329 178.9 161.44 178.9C160.551 178.9 159.83 179.621 159.83 180.51C159.83 181.399 160.551 182.12 161.44 182.12Z" fill="#E7EFFD"/>
<path id="Vector_11" d="M904.01 97.14C904.899 97.14 905.62 96.4192 905.62 95.53C905.62 94.6408 904.899 93.92 904.01 93.92C903.121 93.92 902.4 94.6408 902.4 95.53C902.4 96.4192 903.121 97.14 904.01 97.14Z" fill="#E7EFFD"/>
<path id="Vector_12" d="M358.74 98.62C359.629 98.62 360.35 97.8992 360.35 97.01C360.35 96.1208 359.629 95.4 358.74 95.4C357.851 95.4 357.13 96.1208 357.13 97.01C357.13 97.8992 357.851 98.62 358.74 98.62Z" fill="#E7EFFD"/>
<path id="Vector_13" d="M824.66 95.4C825.549 95.4 826.27 94.6792 826.27 93.79C826.27 92.9008 825.549 92.18 824.66 92.18C823.771 92.18 823.05 92.9008 823.05 93.79C823.05 94.6792 823.771 95.4 824.66 95.4Z" fill="#E7EFFD"/>
<path id="Vector_14" d="M1027.33 100.23C1028.22 100.23 1028.94 99.5092 1028.94 98.62C1028.94 97.7308 1028.22 97.01 1027.33 97.01C1026.44 97.01 1025.72 97.7308 1025.72 98.62C1025.72 99.5092 1026.44 100.23 1027.33 100.23Z" fill="#E7EFFD"/>
<path id="Vector_15" d="M1109.78 522.87C1109.78 523.46 1109.78 524.05 1109.78 524.65C1109.27 543.23 1098.98 561.76 1080.1 574.8C1060.22 588.52 1033.56 595.74 1006.19 600.35C1001.91 601.07 997.61 601.72 993.32 602.35C991.13 602.65 988.95 602.95 986.78 603.23C971.78 605.23 956.7 606.76 941.57 608.04C921.27 609.76 900.87 610.95 880.45 611.83C854.23 612.98 827.96 613.63 801.72 614.28C750.43 615.54 699.1 616.8 647.72 617.67L629.49 617.97L607.25 618.27L594.39 618.42C513.39 619.28 432.51 618.84 351.77 615.54C346.397 615.327 341.033 615.093 335.68 614.84C323.68 614.313 311.68 613.703 299.68 613.01C275.63 611.65 251.39 609.93 227.41 607.38C221.05 606.713 214.717 605.977 208.41 605.17C204.11 604.643 199.823 604.067 195.55 603.44C190.79 602.773 186.05 602.047 181.33 601.26C146.33 595.54 112.54 587.26 81.38 574.64C73.0256 571.291 64.8512 567.509 56.89 563.31V387.31C61.33 382.16 65.74 377.01 69.98 371.8C75.08 365.54 79.98 359.09 84.48 352.47H181.28V292.82H351.78V423.96H629.49V319.96H949.89C946.635 325.267 943.829 330.836 941.5 336.61V337.17H941.13C938.685 343.355 937.113 349.851 936.46 356.47C935.485 365.958 937.219 375.527 941.46 384.07V384.49L941.55 384.69C950.83 403.09 970.47 416.13 993.21 427.69C997.4 429.83 1001.71 431.91 1006.08 433.97C1030.49 445.49 1056.79 456.21 1076.91 470.37L1077.51 470.79C1082.81 474.465 1087.76 478.608 1092.32 483.17C1092.47 483.31 1092.6 483.45 1092.73 483.59C1094.62 485.551 1096.41 487.61 1098.09 489.76C1105.38 498.968 1109.47 510.292 1109.77 522.03C1109.78 522.33 1109.78 522.6 1109.78 522.87Z" fill="#536DFE"/>
<path id="Vector_16" opacity="0.3" d="M1109.78 522.87C1109.78 523.46 1109.78 524.05 1109.78 524.65C1109.27 543.23 1098.98 561.76 1080.1 574.8C1060.22 588.52 1033.56 595.74 1006.19 600.35C1001.91 601.07 997.61 601.72 993.32 602.35C991.13 602.65 988.95 602.95 986.78 603.23C971.78 605.23 956.7 606.76 941.57 608.04C921.27 609.76 900.87 610.95 880.45 611.83C854.23 612.98 827.96 613.63 801.72 614.28C750.43 615.54 699.1 616.8 647.72 617.67L629.49 617.97L607.25 618.27L594.39 618.42C513.39 619.28 432.51 618.84 351.77 615.54C346.397 615.327 341.033 615.093 335.68 614.84C323.68 614.313 311.68 613.703 299.68 613.01C275.63 611.65 251.39 609.93 227.41 607.38C221.05 606.713 214.717 605.977 208.41 605.17C204.11 604.643 199.823 604.067 195.55 603.44C190.79 602.773 186.05 602.047 181.33 601.26C146.33 595.54 112.54 587.26 81.38 574.64C73.0256 571.291 64.8512 567.509 56.89 563.31V387.31C61.33 382.16 65.74 377.01 69.98 371.8C75.08 365.54 79.98 359.09 84.48 352.47H181.28V292.82H351.78V423.96H629.49V319.96H949.89C946.635 325.267 943.829 330.836 941.5 336.61V337.17H941.13C938.685 343.355 937.113 349.851 936.46 356.47C935.485 365.958 937.219 375.527 941.46 384.07V384.49L941.55 384.69C950.83 403.09 970.47 416.13 993.21 427.69C997.4 429.83 1001.71 431.91 1006.08 433.97C1030.49 445.49 1056.79 456.21 1076.91 470.37L1077.51 470.79C1082.81 474.465 1087.76 478.608 1092.32 483.17C1092.47 483.31 1092.6 483.45 1092.73 483.59C1094.62 485.551 1096.41 487.61 1098.09 489.76C1105.38 498.968 1109.47 510.292 1109.77 522.03C1109.78 522.33 1109.78 522.6 1109.78 522.87Z" fill="black"/>
<path id="Vector_17" opacity="0.4" d="M117.29 376.79H88.69V396.09H117.29V376.79Z" fill="black"/>
<path id="Vector_18" opacity="0.4" d="M163.05 376.79H134.45V396.09H163.05V376.79Z" fill="black"/>
<path id="Vector_19" opacity="0.4" d="M688.48 337.12H659.88V356.42H688.48V337.12Z" fill="black"/>
<path id="Vector_20" opacity="0.4" d="M765.69 337.12H737.09V356.42H765.69V337.12Z" fill="black"/>
<path id="Vector_21" opacity="0.4" d="M848.61 337.12H820.01V356.42H848.61V337.12Z" fill="black"/>
<path id="Vector_22" opacity="0.4" d="M688.48 396.1H659.88V415.4H688.48V396.1Z" fill="black"/>
<path id="Vector_23" opacity="0.4" d="M765.69 396.1H737.09V415.4H765.69V396.1Z" fill="black"/>
<path id="Vector_24" d="M848.61 396.1H820.01V415.4H848.61V396.1Z" fill="#536DFE"/>
<path id="Vector_25" opacity="0.4" d="M688.48 455.07H659.88V474.37H688.48V455.07Z" fill="black"/>
<path id="Vector_26" opacity="0.4" d="M765.69 455.07H737.09V474.37H765.69V455.07Z" fill="black"/>
<path id="Vector_27" opacity="0.4" d="M848.61 455.07H820.01V474.37H848.61V455.07Z" fill="black"/>
<path id="Vector_28" opacity="0.4" d="M688.48 514.05H659.88V533.35H688.48V514.05Z" fill="black"/>
<path id="Vector_29" opacity="0.4" d="M765.69 514.05H737.09V533.35H765.69V514.05Z" fill="black"/>
<path id="Vector_30" opacity="0.4" d="M848.61 514.05H820.01V533.35H848.61V514.05Z" fill="black"/>
<path id="Vector_31" opacity="0.4" d="M688.48 573.03H659.88V592.33H688.48V573.03Z" fill="black"/>
<path id="Vector_32" opacity="0.4" d="M765.69 573.03H737.09V592.33H765.69V573.03Z" fill="black"/>
<path id="Vector_33" opacity="0.4" d="M848.61 573.03H820.01V592.33H848.61V573.03Z" fill="black"/>
<path id="Vector_34" opacity="0.4" d="M941.17 337.17C938.725 343.355 937.153 349.851 936.5 356.47H920.81V337.17H941.17Z" fill="black"/>
<path id="Vector_35" d="M949.41 396.1H920.81V415.4H949.41V396.1Z" fill="#536DFE"/>
<path id="Vector_36" opacity="0.4" d="M949.41 455.07H920.81V474.37H949.41V455.07Z" fill="black"/>
<path id="Vector_37" opacity="0.4" d="M949.41 514.05H920.81V533.35H949.41V514.05Z" fill="black"/>
<path id="Vector_38" opacity="0.4" d="M949.41 573.03H920.81V592.33H949.41V573.03Z" fill="black"/>
<path id="Vector_39" opacity="0.4" d="M276 314.6H247.4V333.9H276V314.6Z" fill="black"/>
<path id="Vector_40" d="M276 357.87H247.4V377.17H276V357.87Z" fill="#536DFE"/>
<path id="Vector_41" opacity="0.4" d="M276 401.13H247.4V420.43H276V401.13Z" fill="black"/>
<path id="Vector_42" opacity="0.4" d="M276 444.4H247.4V463.7H276V444.4Z" fill="black"/>
<path id="Vector_43" opacity="0.4" d="M276 487.66H247.4V506.96H276V487.66Z" fill="black"/>
<path id="Vector_44" opacity="0.4" d="M276 530.93H247.4V550.23H276V530.93Z" fill="black"/>
<path id="Vector_45" opacity="0.4" d="M276 574.19H247.4V593.49H276V574.19Z" fill="black"/>
<path id="Vector_46" opacity="0.4" d="M117.29 427.23H88.69V446.53H117.29V427.23Z" fill="black"/>
<path id="Vector_47" opacity="0.4" d="M163.05 427.23H134.45V446.53H163.05V427.23Z" fill="black"/>
<path id="Vector_48" opacity="0.4" d="M117.29 477.67H88.69V496.97H117.29V477.67Z" fill="black"/>
<path id="Vector_49" opacity="0.4" d="M163.05 477.67H134.45V496.97H163.05V477.67Z" fill="black"/>
<path id="Vector_50" opacity="0.4" d="M117.29 528.11H88.69V547.41H117.29V528.11Z" fill="black"/>
<path id="Vector_51" opacity="0.4" d="M163.05 528.11H134.45V547.41H163.05V528.11Z" fill="black"/>
<path id="Vector_52" opacity="0.4" d="M551.94 446.45H408.96V463.7H551.94V446.45Z" fill="black"/>
<path id="Vector_53" opacity="0.4" d="M551.94 501.49H408.96V518.74H551.94V501.49Z" fill="black"/>
<path id="Vector_54" opacity="0.4" d="M551.94 556.54H408.96V573.79H551.94V556.54Z" fill="black"/>
<path id="Vector_55" d="M208.35 0.690025V604.69C204.05 604.163 199.763 603.587 195.49 602.96V0.0900269C199.78 0.170027 204.06 0.390025 208.35 0.690025Z" fill="#3F3D56"/>
<path id="Vector_56" d="M607.25 99.32V617.83L594.39 617.98V97.75C598.67 98.33 602.957 98.8533 607.25 99.32Z" fill="#3F3D56"/>
<path id="Vector_57" d="M1092.73 483.17H0.279999C0.676609 478.827 1.42235 474.523 2.51 470.3H1077.59C1083.03 474.106 1088.1 478.415 1092.73 483.17V483.17Z" fill="#3F3D56"/>
<path id="Vector_58" d="M993.29 427.23C997.48 429.37 1001.79 431.45 1006.16 433.51V599.93C1001.88 600.65 997.58 601.3 993.29 601.93V427.23Z" fill="#3F3D56"/>
<path id="Vector_59" d="M337.33 229.81H334.87V227.35H334.43V229.81H331.97V230.25H334.43V232.71H334.87V230.25H337.33V229.81Z" fill="#E7EFFD"/>
<path id="Vector_60" d="M848.61 178.68H846.15V176.22H845.7V178.68H843.25V179.12H845.7V181.58H846.15V179.12H848.61V178.68Z" fill="#E7EFFD"/>
<path id="Vector_61" d="M395.6 168.73H393.14V166.27H392.69V168.73H390.24V169.18H392.69V171.63H393.14V169.18H395.6V168.73Z" fill="#E7EFFD"/>
<path id="Vector_62" d="M391.85 327.57C392.739 327.57 393.46 326.849 393.46 325.96C393.46 325.071 392.739 324.35 391.85 324.35C390.961 324.35 390.24 325.071 390.24 325.96C390.24 326.849 390.961 327.57 391.85 327.57Z" fill="#E7EFFD"/>
<path id="Vector_63" d="M759.02 183.73C759.909 183.73 760.63 183.009 760.63 182.12C760.63 181.231 759.909 180.51 759.02 180.51C758.131 180.51 757.41 181.231 757.41 182.12C757.41 183.009 758.131 183.73 759.02 183.73Z" fill="#E7EFFD"/>
<path id="Vector_64" d="M920.81 259.98C921.699 259.98 922.42 259.259 922.42 258.37C922.42 257.481 921.699 256.76 920.81 256.76C919.921 256.76 919.2 257.481 919.2 258.37C919.2 259.259 919.921 259.98 920.81 259.98Z" fill="#E7EFFD"/>
<path id="Vector_65" d="M667.43 273.79C668.319 273.79 669.04 273.069 669.04 272.18C669.04 271.291 668.319 270.57 667.43 270.57C666.541 270.57 665.82 271.291 665.82 272.18C665.82 273.069 666.541 273.79 667.43 273.79Z" fill="#E7EFFD"/>
<path id="Vector_66" d="M715.32 543.17C715.32 543.17 681.01 551.47 667.43 567C662.88 572.19 656.13 575.93 649.16 578.6V555.17C657.01 541.99 664.92 527.33 664.92 527.33C665.28 526.61 668.14 516.5 668.14 516.5C674.58 511.44 667.78 493.76 667.78 493.76C667.78 493.76 671.72 482.57 669.57 480.4C667.42 478.23 669.21 472.46 671 469.93C672.79 467.4 672.43 464.15 672.43 461.99C672.43 459.83 669.57 456.57 664.92 454.77C660.27 452.97 665.28 450.08 668.14 449.35C671 448.62 671.72 441.77 668.5 438.16C665.28 434.55 668.86 432.39 670.64 428.42C672.42 424.45 664.89 425.17 664.89 425.17V388.67C664.89 388.67 662.74 376.76 660.6 355.82C658.46 334.88 650.23 332.72 650.23 332.72C645.822 331.351 641.52 329.66 637.36 327.66C632.98 325.607 628.438 323.918 623.78 322.61C623.78 322.61 614.13 322.61 606.26 320.19C598.39 317.77 594.31 317.6 594.31 317.6L593.02 316.96C583.343 312.039 575.675 303.909 571.33 293.96C571.11 293.46 570.91 292.96 570.71 292.48C572.847 290.138 574.759 287.6 576.42 284.9V284.84C576.42 285.21 576.42 285.58 576.42 285.95C576.42 286.1 576.42 286.26 576.42 286.41C576.42 287.3 576.42 288.19 576.42 289.08V289.17C582.12 279.1 598.66 276.8 600.23 265.3C600.301 264.776 600.338 264.249 600.34 263.72V263.65C600.34 263.27 600.34 262.88 600.34 262.49C600.13 259.28 599.03 256.08 598.82 252.84C598.75 251.911 598.75 250.979 598.82 250.05V250.11C599.56 241.18 606.29 233.41 609.37 224.74C610.198 222.408 610.739 219.983 610.98 217.52V217.45C611.06 216.71 611.11 215.96 611.13 215.21C611.13 215.03 611.13 214.84 611.13 214.66C611.13 214.14 611.13 213.66 611.13 213.1C611.036 208.487 609.999 203.942 608.081 199.746C606.163 195.549 603.406 191.79 599.98 188.7C594.28 183.75 586.75 180.64 582.8 174.17C580.96 171.17 580.06 167.61 578.05 164.71C574.27 159.23 567.33 157 560.76 156.21C554.19 155.42 547.44 155.68 541.16 153.62C536.7 152.16 532.66 149.57 528.16 148.27C523.257 146.958 518.07 147.177 513.296 148.899C508.521 150.62 504.388 153.761 501.45 157.9C499.08 161.36 497.53 165.5 494.33 168.2C487.78 173.74 476.67 171.34 470.93 177.72C467.78 181.23 467.42 186.01 467.8 190.89C467.8 190.95 467.8 191.01 467.8 191.07C467.8 191.44 467.87 191.82 467.91 192.2C467.91 192.38 467.91 192.56 467.91 192.73C467.91 192.9 467.91 193.11 467.98 193.3C468.18 195.05 468.43 196.79 468.65 198.47C468.65 198.73 468.71 198.98 468.74 199.24L468.92 200.81C468.92 201.19 468.98 201.57 469.02 201.95C469.06 202.33 469.09 202.95 469.12 203.37C469.15 203.79 469.12 204.11 469.19 204.49C469.831 217.816 467.006 231.081 460.99 242.99C455.58 253.6 447.54 263.38 446.14 275.23C445.922 277.172 445.869 279.129 445.98 281.08C445.98 281.31 445.98 281.54 445.98 281.77C445.98 282 446.04 282.47 446.07 282.82C446.1 283.17 446.15 283.63 446.2 284.03C446.2 284.26 446.26 284.49 446.29 284.72C446.36 285.25 446.44 285.78 446.53 286.32L446.59 286.66C448.01 294.74 451.23 302.66 452.94 310.82C453.581 313.829 454.009 316.88 454.22 319.95C454.215 319.97 454.215 319.99 454.22 320.01C454.28 321.01 454.33 321.96 454.36 322.94C454.36 324.26 454.36 325.59 454.36 326.94C451.645 327.983 448.862 328.839 446.03 329.5C441.03 330.22 426.36 343.22 427.43 346.5C428.5 349.78 420.87 372.5 420.66 373.19L408.66 456.19C408.66 456.19 402.29 462.33 404.28 466.3C406.27 470.27 403.89 477.13 403.89 477.13C403.89 477.13 393.13 481.82 395.52 484.71C397.91 487.6 396.82 493.01 395.18 496.62C393.54 500.23 390.85 506.73 395.18 507.81C399.51 508.89 395.92 522.98 395.92 522.98C395.92 522.98 411.01 521.24 409.92 530.2C409.56 533.05 420.47 540.89 425.02 544.03V587.17C418.91 585.46 411.73 583.24 407.15 581.1C397.86 576.77 345.67 568.47 334.23 593.38C322.79 618.29 349.96 651.5 356.75 655.11C356.75 655.11 363.19 660.16 364.62 662.69C366.05 665.22 374.27 665.94 374.27 665.94C374.27 665.94 382.85 669.94 384.99 672.07C386.57 673.67 399.64 677.82 415.13 681.07C415.13 681.07 402.62 709.87 423.03 707.5C443.44 705.13 453.38 695.08 467.77 695.08C473.52 695.08 484.2 694.27 494.95 693.31C497.65 693.788 500.321 694.419 502.95 695.2C509.007 697.104 515.226 698.443 521.53 699.2C521.53 699.2 537.62 707.86 546.2 705.69C546.907 705.491 547.567 705.151 548.14 704.69H548.34C549.9 704.3 551.67 702.69 553.51 700.26C564.24 701.36 576.51 702.92 581.07 704.7C589.96 708.13 653.55 703.38 653.55 703.38C653.55 703.38 694.63 704.19 706.4 707.75C718.17 711.31 713.99 671.4 692.27 666.91C686.472 665.747 680.573 665.164 674.66 665.17C676.165 663.619 677.539 661.946 678.77 660.17C686.59 659.46 691.77 659.02 691.77 659.02C691.77 659.02 712.5 648.91 724.3 642.77C731.834 638.672 738.601 633.299 744.3 626.89C744.3 626.89 754.66 620.39 758.95 617.89C763.24 615.39 765.38 607.06 765.38 607.06C797.89 533.41 715.32 543.17 715.32 543.17ZM622.24 450.79C622.24 449.58 622.24 448.36 622.24 447.15C623.4 447.97 623.23 449.26 622.24 450.78V450.79ZM622.58 476.32C623.45 477.46 624.29 478.5 624.89 479.32C627.2 482.32 623.02 483.72 623.32 488.69C623.39 489.8 623.49 491.35 623.59 493.07C623.15 485.9 622.79 480 622.58 476.31V476.32Z" fill="url(#paint1_linear)"/>
<path id="Vector_67" d="M436.52 590.24C436.52 590.24 416.52 585.59 407.21 581.3C397.9 577.01 345.73 568.79 334.29 593.46C322.85 618.13 350.02 651 356.81 654.58C363.6 658.16 429.73 609.17 429.73 609.17L481.89 631.17L491.89 597.03L436.52 590.24Z" fill="#65617D"/>
<path id="Vector_68" d="M648.83 597.03H495.42C475.079 597.03 458.59 613.519 458.59 633.86V639.19C458.59 659.531 475.079 676.02 495.42 676.02H648.83C669.171 676.02 685.66 659.531 685.66 639.19V633.86C685.66 613.519 669.171 597.03 648.83 597.03Z" fill="#65617D"/>
<path id="Vector_69" opacity="0.1" d="M685.66 636.52C685.667 644.289 683.378 651.888 679.08 658.36C677.618 660.553 675.944 662.596 674.08 664.46C670.417 668.134 666.063 671.047 661.27 673.033C656.477 675.018 651.338 676.037 646.15 676.03H498.09C487.614 676.03 477.567 671.868 470.159 664.461C462.752 657.053 458.59 647.006 458.59 636.53C458.59 626.054 462.752 616.007 470.159 608.599C477.567 601.192 487.614 597.03 498.09 597.03H646.16C656.634 597.03 666.68 601.19 674.087 608.596C681.495 616.001 685.657 626.046 685.66 636.52V636.52Z" fill="black"/>
<path id="Vector_70" d="M562.03 638.83C562.03 638.83 539.26 644.68 520.68 644.42C502.1 644.16 415.19 680.27 415.19 680.27C415.19 680.27 402.68 708.79 423.09 706.43C443.5 704.07 453.44 694.17 467.83 694.17C482.22 694.17 527.49 689.17 527.49 689.17L571.05 656.99L562.03 638.83Z" fill="#FBBEBE"/>
<path id="Vector_71" d="M576.28 369.7L535.44 377.75L532.79 378.28C532.79 378.28 500.5 369.7 499.43 368.98C498.36 368.26 469.05 328.77 469.05 328.77C469.05 328.77 483.87 328.93 495.51 322.22C495.93 321.98 496.34 321.72 496.75 321.47C501.869 318.383 505.757 313.615 507.75 307.98C507.96 307.39 508.14 306.78 508.31 306.14C509.55 301.36 509.63 295.57 507.97 288.56C503.97 271.89 513.17 267.3 525.36 267.7C542.97 268.28 566.94 279.27 566.94 279.27C567.25 284.88 568.526 290.394 570.71 295.57C570.9 296.05 571.11 296.57 571.33 297.03C575.703 306.899 583.37 314.942 593.02 319.78L594.31 320.42C595.61 321.04 596.98 321.63 598.4 322.16C629.54 333.96 576.28 369.7 576.28 369.7Z" fill="#FBBEBE"/>
<path id="Vector_72" opacity="0.1" d="M571.37 297.03C563.603 305.823 553.068 311.701 541.507 313.692C529.945 315.683 518.051 313.668 507.79 307.98C509.55 302.86 509.88 296.49 508.01 288.56C498.36 247.81 567.01 279.27 567.01 279.27C567.348 285.409 568.827 291.432 571.37 297.03V297.03Z" fill="black"/>
<path id="Vector_73" d="M584.26 260.83C584.277 270.46 581.573 279.899 576.46 288.06C574.796 290.736 572.884 293.251 570.75 295.57C561.743 305.442 549.232 311.4 535.89 312.17C534.89 312.24 533.82 312.27 532.78 312.27C522.6 312.27 512.649 309.251 504.185 303.596C495.721 297.94 489.124 289.902 485.228 280.497C481.332 271.092 480.313 260.743 482.299 250.759C484.285 240.774 489.187 231.603 496.385 224.405C503.583 217.207 512.755 212.305 522.739 210.319C532.723 208.333 543.072 209.352 552.477 213.248C561.882 217.144 569.92 223.741 575.576 232.205C581.231 240.669 584.25 250.62 584.25 260.8L584.26 260.83Z" fill="#FBBEBE"/>
<path id="Vector_74" opacity="0.1" d="M576.28 369.7L535.44 377.75L532.79 378.28C532.79 378.28 500.5 369.7 499.43 368.98C498.36 368.26 469.05 328.77 469.05 328.77C469.05 328.77 483.87 328.93 495.51 322.22C495.93 321.98 496.34 321.72 496.75 321.47C500.45 325.47 512.56 336.78 531.59 336.7C534.033 336.701 536.473 336.524 538.89 336.17C544.63 335.29 550.42 334.72 556.2 334.17C567.27 333.01 584.2 329.65 593.09 319.87L594.38 320.51C595.68 321.13 597.05 321.72 598.47 322.25C629.54 333.96 576.28 369.7 576.28 369.7Z" fill="black"/>
<path id="Vector_75" d="M622.39 474.07C622.74 481.94 628.47 570.58 628.47 570.58H450.1L451.31 514.77L452.31 470.13L452.63 455.48L454.06 404.73L448.89 400.17L420.79 375.41C421 374.75 428.62 352.16 427.56 348.98C426.5 345.8 441.15 332.9 446.16 332.18C449.007 331.519 451.807 330.667 454.54 329.63C462.97 326.63 474.22 322.31 475.46 322.99C477.21 323.93 494.75 322.3 495.46 322.23C495.46 322.23 508.4 338.96 531.52 338.86C533.954 338.848 536.385 338.654 538.79 338.28C544.53 337.4 550.32 336.83 556.1 336.23C567.73 335.02 585.81 331.37 594.28 320.43C594.28 320.43 598.37 320.6 606.23 322.99C614.09 325.38 623.75 325.39 623.75 325.39C628.405 326.685 632.947 328.357 637.33 330.39C641.493 332.367 645.794 334.038 650.2 335.39C650.2 335.39 658.42 337.53 660.57 358.26C662.72 378.99 664.89 390.79 664.89 390.79L622.39 427.6C622.39 427.6 622.04 466.17 622.39 474.07Z" fill="#536DFE"/>
<path id="Vector_76" d="M420.8 535.91L427.05 545.92L450.46 554.17L466.55 524.83L451.72 514.82L427.95 505.53L414.37 513.39L420.8 535.91Z" fill="#FBBEBE"/>
<path id="Vector_77" d="M620.6 585.23C620.6 585.23 653.84 582.73 667.43 567.36C681.02 551.99 715.32 543.77 715.32 543.77C715.32 543.77 797.89 534.12 765.32 607.04C765.32 607.04 763.18 615.26 758.89 617.76C754.6 620.26 744.24 626.7 744.24 626.7L617.41 615.62L620.6 585.23Z" fill="#65617D"/>
<path id="Vector_78" opacity="0.1" d="M685.66 636.52C685.667 644.289 683.378 651.888 679.08 658.36C657.74 660.25 610.48 664.69 600.59 667.45C588.44 670.82 563.85 664.95 561.16 664.29L560.91 664.23C560.91 664.23 556.17 649.85 553.91 640.65C552.91 636.47 552.38 633.36 553.04 633.13C555.19 632.42 574.85 627.05 574.49 630.13C574.13 633.21 633.49 607.07 633.49 607.07L635.31 629.95C641.34 636.85 685.66 626.59 685.66 636.52Z" fill="black"/>
<path id="Vector_79" d="M746.78 617.4L744.28 626.7C738.569 633.054 731.803 638.372 724.28 642.42C712.48 648.5 691.75 658.51 691.75 658.51C691.75 658.51 615.62 664.94 602.75 668.51C589.88 672.08 563.07 665.29 563.07 665.29C563.07 665.29 553.07 634.91 555.21 634.19C557.35 633.47 577.01 628.12 576.66 631.19C576.31 634.26 635.66 608.13 635.66 608.13L746.78 617.4Z" fill="#65617D"/>
<path id="Vector_80" d="M534.81 697.54C534.81 697.54 572.23 700.15 581.13 703.54C590.03 706.93 653.61 702.24 653.61 702.24C653.61 702.24 694.69 703.04 706.46 706.56C718.23 710.08 714.05 670.56 692.33 666.13C670.61 661.7 640 668.22 640 668.22C640 668.22 605.46 663.77 601.27 663.22C597.08 662.67 569.49 663.47 569.49 663.47L534.81 697.54Z" fill="#FBBEBE"/>
<path id="Vector_81" opacity="0.1" d="M387.76 598.89C387.76 598.89 437.22 603.34 450.82 611.45L387.76 598.89Z" fill="black"/>
<path id="Vector_82" opacity="0.1" d="M696.26 566.45C696.26 566.45 657.53 575.87 642.35 589.73L696.26 566.45Z" fill="black"/>
<path id="Vector_83" opacity="0.1" d="M390.64 587.64C391.43 587.9 413.41 590.78 412.88 592.87C412.35 594.96 390.64 587.64 390.64 587.64Z" fill="black"/>
<path id="Vector_84" opacity="0.1" d="M356.1 642.78L358.96 653.51C358.96 653.51 365.39 658.51 366.82 661.01C368.25 663.51 376.47 664.23 376.47 664.23C376.47 664.23 385.05 668.16 387.2 670.3C389.35 672.44 412.57 679.24 434.38 682.1C456.19 684.96 496.57 690.32 505.15 693.18C511.212 695.06 517.435 696.376 523.74 697.11C523.74 697.11 539.82 705.69 548.4 703.55C556.98 701.41 571.63 662.44 571.63 662.44C571.63 662.44 515.16 649.22 513.37 644.93C511.58 640.64 457.25 620.63 457.25 620.63L425.08 621.39L356.1 642.78Z" fill="black"/>
<path id="Vector_85" d="M353.95 643.85L356.81 654.58C356.81 654.58 363.25 659.58 364.68 662.08C366.11 664.58 374.33 665.3 374.33 665.3C374.33 665.3 382.91 669.23 385.05 671.38C387.19 673.53 410.43 680.31 432.23 683.17C454.03 686.03 494.43 691.39 503.01 694.25C509.07 696.124 515.289 697.436 521.59 698.17C521.59 698.17 537.68 706.74 546.26 704.6C554.84 702.46 569.49 663.49 569.49 663.49C569.49 663.49 513.01 650.27 511.23 645.98C509.45 641.69 429.73 609.17 429.73 609.17L404.73 603.45L353.95 643.85Z" fill="#65617D"/>
<path id="Vector_86" d="M427.04 371.84L420.79 375.42L408.79 457.63C408.79 457.63 402.42 463.71 404.41 467.63C406.4 471.55 404.02 478.35 404.02 478.35C404.02 478.35 393.26 483 395.65 485.86C398.04 488.72 396.95 494.08 395.31 497.65C393.67 501.22 390.98 507.65 395.31 508.73C399.64 509.81 396.05 523.73 396.05 523.73C396.05 523.73 411.14 522.01 410.05 530.87C409.6 534.45 427.11 545.87 427.11 545.87C427.11 545.87 407.21 509.77 451.79 514.77L455.62 494.42C455.62 494.42 459.45 482.96 455.62 479.42C451.79 475.88 456.48 458.87 456.48 458.87L457.32 385.06L427.04 371.84Z" fill="#536DFE"/>
<path id="Vector_87" opacity="0.1" d="M417.33 478.01C418.12 479.32 442.19 482.01 443.76 486.28C445.33 490.55 417.33 478.01 417.33 478.01Z" fill="black"/>
<path id="Vector_88" opacity="0.1" d="M409.74 498.42C409.74 498.42 413.01 488.21 420.74 490.04C428.47 491.87 409.74 498.42 409.74 498.42Z" fill="black"/>
<path id="Vector_89" opacity="0.1" d="M405.56 513.33C405.56 513.33 411.31 499.72 419.16 500.77C427.01 501.82 405.56 513.33 405.56 513.33Z" fill="black"/>
<path id="Vector_90" d="M667.43 513.03L664.92 528.03C664.92 528.03 639.19 575.22 634.54 575.93C629.89 576.64 604.54 544.48 604.54 544.48L597.75 513.02L624.48 507.95L636.35 496.22C636.35 496.22 666.35 499.09 667.43 513.03Z" fill="#FBBEBE"/>
<path id="Vector_91" d="M655.27 384L664.92 390.79V426.89C664.92 426.89 672.43 426.17 670.64 430.11C668.85 434.05 665.28 436.18 668.5 439.76C671.72 443.34 671 450.12 668.14 450.84C665.28 451.56 660.28 454.41 664.92 456.2C669.56 457.99 672.43 461.2 672.43 463.35C672.43 465.5 672.79 468.71 671 471.21C669.21 473.71 667.43 479.43 669.57 481.58C671.71 483.73 667.78 494.8 667.78 494.8C667.78 494.8 674.58 512.32 668.14 517.32C668.14 517.32 665.28 527.32 664.92 528.04C664.92 528.04 669.43 493.25 624.46 507.96C624.46 507.96 623.63 494.7 623.32 489.79C623.01 484.88 627.2 483.44 624.89 480.51C622.58 477.58 616.8 470.85 619.53 469.07C622.26 467.29 621.32 464.07 620.24 461.56C619.16 459.05 615.39 459.06 618.81 456.02C622.23 452.98 624.26 450.13 622.25 448.7C620.24 447.27 616.75 442.61 619.53 440.47C622.31 438.33 622.39 407.23 622.39 407.23C622.39 407.23 633.83 361.48 655.27 384Z" fill="#536DFE"/>
<path id="Vector_92" opacity="0.1" d="M650.73 445.5C650.73 445.5 664.47 441.77 664.92 445.5C665.37 449.23 650.73 445.5 650.73 445.5Z" fill="black"/>
<path id="Vector_93" opacity="0.1" d="M635.29 455.77C635.29 455.77 654.13 451.06 656.48 454.72C658.83 458.38 635.29 455.77 635.29 455.77Z" fill="black"/>
<path id="Vector_94" opacity="0.1" d="M631.1 465.71C631.1 465.71 659.36 461.78 661.19 467.54C663.02 473.3 631.1 465.71 631.1 465.71Z" fill="black"/>
<path id="Vector_95" opacity="0.1" d="M635.29 478.01C636.34 478.27 662.5 480.1 663.02 485.07C663.54 490.04 635.29 478.01 635.29 478.01Z" fill="black"/>
<path id="Vector_96" d="M638.7 494.12H435.56C429.778 494.12 425.09 498.808 425.09 504.59V610.92C425.09 616.702 429.778 621.39 435.56 621.39H638.7C644.482 621.39 649.17 616.702 649.17 610.92V504.59C649.17 498.808 644.482 494.12 638.7 494.12Z" fill="#3F3D56"/>
<path id="Vector_97" d="M537.13 566.02C541.692 566.02 545.39 562.322 545.39 557.76C545.39 553.198 541.692 549.5 537.13 549.5C532.568 549.5 528.87 553.198 528.87 557.76C528.87 562.322 532.568 566.02 537.13 566.02Z" fill="#E7EFFD"/>
<path id="Vector_98" opacity="0.1" d="M462.61 416.11C462.61 416.11 484.09 432.53 500.7 420.02C500.7 420.02 472.62 422.57 462.61 416.11Z" fill="black"/>
<path id="Vector_99" opacity="0.1" d="M571.37 420.53C571.37 420.53 592.84 436.94 609.45 424.43C609.45 424.43 581.38 426.99 571.37 420.53Z" fill="black"/>
<path id="Vector_100" opacity="0.1" d="M584.26 260.83C584.277 270.46 581.573 279.899 576.46 288.06C576.03 273.73 572.66 259.39 564.86 247.42C557.72 236.42 536.01 217.23 521.09 222.58C519.529 223.152 518.126 224.084 516.993 225.3C515.86 226.516 515.03 227.983 514.57 229.58C513.09 235.2 517.42 237.58 520.2 242.01C524.914 249.686 526.756 258.784 525.4 267.69C525.211 268.889 524.96 270.077 524.65 271.25C522.3 280.07 516.92 290.16 522.47 297.39C526.34 302.39 534.66 304.17 535.79 310.39C535.893 310.977 535.927 311.575 535.89 312.17C535.63 316.38 532.04 320.09 530.47 324.22C528.63 329.09 529.67 333.93 531.58 338.82C534.06 345.2 538.02 351.65 538.98 358.39C539.94 365.13 537.87 371.39 535.43 377.72C533.12 383.72 530.43 389.67 529.53 395.92C527.8 407.8 532.16 421.54 524.68 430.92C523.92 432.055 522.746 432.848 521.41 433.13C516.62 433.63 517.41 425.02 513.58 422.13C513.99 427.13 514.38 432.35 512.58 437.03C510.78 441.71 506.04 445.69 501.08 444.9L499.37 433.67C495.995 436.992 491.933 439.535 487.47 441.12C489.227 429.178 493.457 417.734 499.89 407.52C487.3 413.58 479.96 426.7 473.41 439.04C469.33 446.75 465.1 455.17 466.53 463.78C467.11 467.29 468.62 470.63 468.95 474.16C469.28 477.69 468 481.82 464.71 483.16C461.84 484.33 458.49 482.93 456.42 480.59L456.06 480.16C455.86 479.9 455.67 479.63 455.49 479.36C455.133 478.817 454.815 478.249 454.54 477.66C453.646 475.546 452.976 473.344 452.54 471.09L452.32 470.09C448.99 455.48 445.99 440.41 448.43 425.63C449.33 420.19 450.97 414.79 450.77 409.27C450.62 406.157 449.986 403.087 448.89 400.17C445.97 391.99 440.35 384.48 437.15 376.24C437.115 376.184 437.088 376.123 437.07 376.06C435.39 371.7 434.56 366.25 437.67 362.75C439.27 360.94 441.67 360.03 443.67 358.75C449.89 354.7 452.67 347.01 453.82 339.67C454.338 336.362 454.598 333.018 454.6 329.67C463.03 326.67 474.28 322.35 475.52 323.03C477.27 323.97 494.81 322.34 495.52 322.27C500.86 319.19 505.52 314.66 507.8 308.03C508.01 307.44 508.19 306.83 508.36 306.19C500.354 301.87 493.636 295.506 488.89 287.745C484.144 279.984 481.539 271.103 481.342 262.008C481.145 252.913 483.362 243.928 487.767 235.969C492.172 228.009 498.609 221.36 506.42 216.697C514.232 212.034 523.139 209.525 532.236 209.426C541.333 209.326 550.293 211.639 558.205 216.129C566.117 220.62 572.697 227.127 577.276 234.988C581.854 242.849 584.268 251.783 584.27 260.88L584.26 260.83Z" fill="black"/>
<path id="Vector_101" d="M524.65 269.11C522.29 277.93 516.92 288.02 522.48 295.26C526.35 300.26 534.67 302.03 535.78 308.26C536.67 313.26 532.26 317.38 530.48 322.08C526.24 333.31 537.3 344.35 538.98 356.24C540.81 369.14 531.41 380.89 529.54 393.78C527.81 405.66 532.17 419.39 524.69 428.78C523.934 429.919 522.759 430.714 521.42 430.99C516.63 431.5 517.42 422.89 513.59 419.99C514 424.99 514.39 430.21 512.59 434.89C510.79 439.57 506.05 443.54 501.09 442.76L499.38 431.52C496.006 434.844 491.944 437.387 487.48 438.97C489.237 427.032 493.464 415.592 499.89 405.38C487.3 411.44 479.97 424.56 473.42 436.89C469.33 444.6 465.11 453.03 466.53 461.64C467.11 465.15 468.62 468.48 468.95 472.02C469.28 475.56 468 479.67 464.71 481.02C461.71 482.27 458.08 480.61 456.06 478.02C454.04 475.43 453.26 472.13 452.53 468.94C449.11 454.02 445.92 438.62 448.41 423.52C449.31 418.07 450.95 412.67 450.75 407.16C450.32 395.09 441.41 385.16 437.07 373.93C435.38 369.56 434.56 364.12 437.67 360.62C439.27 358.81 441.67 357.9 443.67 356.62C449.88 352.56 452.67 344.88 453.81 337.54C455.038 329.605 454.811 321.513 453.14 313.66C450.63 301.91 444.87 290.43 446.3 278.5C447.7 266.76 455.74 257.08 461.15 246.57C468.11 232.967 470.781 217.573 468.81 202.42C467.88 195.37 466.25 187.21 471.03 181.94C476.77 175.62 487.88 178 494.43 172.52C497.63 169.85 499.18 165.74 501.55 162.32C504.512 158.211 508.652 155.099 513.421 153.396C518.191 151.692 523.366 151.477 528.26 152.78C532.76 154.07 536.8 156.63 541.26 158.08C547.54 160.08 554.26 159.86 560.86 160.65C567.46 161.44 574.37 163.65 578.15 169.06C580.15 171.94 581.06 175.45 582.9 178.43C586.85 184.83 594.38 187.91 600.08 192.82C604.968 197.178 608.464 202.88 610.132 209.212C611.801 215.545 611.567 222.229 609.46 228.43C606.06 237.9 598.19 246.28 598.86 256.32C599.13 260.45 600.86 264.5 600.32 268.59C598.74 279.98 582.21 282.25 576.5 292.23C576.96 275.87 573.82 259.02 564.89 245.31C557.75 234.31 536.04 215.11 521.12 220.46C519.561 221.035 518.159 221.968 517.026 223.183C515.894 224.399 515.063 225.864 514.6 227.46C513.12 233.07 517.45 235.46 520.23 239.89C522.892 244.214 524.654 249.03 525.414 254.05C526.173 259.07 525.914 264.192 524.65 269.11Z" fill="#3F3D56"/>
<g id="Group" opacity="0.2">
<path id="Vector_102" opacity="0.2" d="M454.54 325.79C454.665 320.652 454.185 315.516 453.11 310.49C450.98 300.49 446.52 290.7 446.11 280.66C445.53 291.84 450.76 302.66 453.11 313.66C453.963 317.65 454.441 321.711 454.54 325.79V325.79Z" fill="black"/>
<path id="Vector_103" opacity="0.2" d="M497.14 406.94C498.01 405.35 498.91 403.77 499.88 402.23C487.3 408.29 479.96 421.41 473.41 433.75C469.62 440.88 465.73 448.64 466.31 456.58C466.79 449.77 470.14 443.13 473.41 436.96C479.47 425.55 486.21 413.49 497.14 406.94Z" fill="black"/>
<path id="Vector_104" opacity="0.2" d="M468.89 471.61C468.51 474.31 467.17 476.87 464.71 477.88C461.71 479.12 458.08 477.47 456.07 474.88C454.06 472.29 453.26 469 452.53 465.8C450.09 455.14 447.77 444.22 447.53 433.35C447.29 445.28 449.83 457.3 452.53 469.02C453.26 472.21 454.05 475.52 456.07 478.1C458.09 480.68 461.68 482.34 464.71 481.1C468 479.75 469.29 475.64 468.96 472.1C468.89 471.93 468.89 471.77 468.89 471.61Z" fill="black"/>
<path id="Vector_105" opacity="0.2" d="M525.81 258.37C525.694 260.937 525.305 263.485 524.65 265.97C522.91 272.5 519.51 279.74 520.12 285.97C520.6 280.53 523.2 274.61 524.65 269.16C525.578 265.642 525.969 262.005 525.81 258.37Z" fill="black"/>
<path id="Vector_106" opacity="0.2" d="M469.4 210.65C469.484 206.836 469.276 203.022 468.78 199.24C468.41 196.46 467.94 193.5 467.78 190.61C467.55 194.46 468.25 198.61 468.78 202.46C469.136 205.177 469.343 207.911 469.4 210.65V210.65Z" fill="black"/>
<path id="Vector_107" opacity="0.2" d="M535.79 308.36C535.79 308.27 535.79 308.2 535.72 308.11C534.96 311.83 531.9 315.23 530.49 318.97C529.653 321.202 529.351 323.6 529.61 325.97C529.731 324.676 530.027 323.404 530.49 322.19C532.26 317.48 536.67 313.32 535.79 308.36Z" fill="black"/>
<path id="Vector_108" opacity="0.2" d="M450.75 404.02C450.31 391.95 441.41 382.02 437.06 370.79C436.366 369.022 435.896 367.175 435.66 365.29C435.419 368.267 435.899 371.258 437.06 374.01C441.34 385.09 450 394.84 450.7 406.64C450.75 405.77 450.78 404.89 450.75 404.02Z" fill="black"/>
<path id="Vector_109" opacity="0.2" d="M564.89 242.17C557.74 231.17 536.04 211.97 521.12 217.32C519.56 217.894 518.156 218.827 517.022 220.042C515.887 221.258 515.055 222.723 514.59 224.32C514.238 225.544 514.2 226.837 514.48 228.08C514.48 227.9 514.54 227.72 514.59 227.54C515.053 225.943 515.885 224.477 517.02 223.261C518.154 222.045 519.559 221.113 521.12 220.54C536.04 215.19 557.74 234.42 564.89 245.39C572.97 257.81 576.3 272.8 576.52 287.67C576.73 271.72 573.54 255.45 564.89 242.17Z" fill="black"/>
<path id="Vector_110" opacity="0.2" d="M600.29 265.42C598.72 276.78 582.29 279.07 576.52 288.99C576.52 290.08 576.52 291.18 576.52 292.27C582.22 282.27 598.76 280.02 600.33 268.63C600.47 267.511 600.47 266.379 600.33 265.26C600.322 265.315 600.308 265.368 600.29 265.42V265.42Z" fill="black"/>
<path id="Vector_111" opacity="0.2" d="M609.43 225.25C606.03 234.73 598.16 243.1 598.83 253.15C598.83 253.29 598.83 253.44 598.83 253.59C599.57 244.74 606.3 237.06 609.38 228.47C610.767 224.546 611.362 220.386 611.13 216.23C611.021 219.305 610.447 222.346 609.43 225.25V225.25Z" fill="black"/>
<path id="Vector_112" opacity="0.2" d="M524.69 425.66C523.935 426.802 522.76 427.599 521.42 427.88C516.63 428.39 517.42 419.78 513.59 416.88C513.69 418.02 513.78 419.17 513.84 420.32C517.4 423.4 516.74 431.59 521.42 431.09C522.084 430.955 522.714 430.69 523.275 430.311C523.836 429.931 524.317 429.445 524.69 428.88C528.96 423.52 529.37 416.75 529.26 409.72C529.15 415.58 528.3 421.17 524.69 425.66Z" fill="black"/>
<path id="Vector_113" opacity="0.2" d="M512.58 431.78C510.76 436.47 506.04 440.44 501.07 439.65C500.503 435.91 499.937 432.163 499.37 428.41C496.142 431.578 492.29 434.04 488.06 435.64C487.84 436.78 487.63 437.93 487.46 439.08C491.927 437.497 495.992 434.954 499.37 431.63C499.937 435.383 500.503 439.13 501.07 442.87C506.07 443.65 510.76 439.69 512.58 435C513.698 431.733 514.143 428.274 513.89 424.83C513.838 427.203 513.395 429.551 512.58 431.78V431.78Z" fill="black"/>
<path id="Vector_114" opacity="0.2" d="M529.54 390.66C529.154 393.68 529.01 396.727 529.11 399.77C529.126 397.799 529.27 395.832 529.54 393.88C531.33 381.59 539.94 370.34 539.16 358.15C538.47 369.17 531.17 379.46 529.54 390.66Z" fill="black"/>
</g>
<path id="Vector_115" d="M826.89 561.17C826.89 561.17 820.1 592.8 850.32 596.55L852.19 593.04C852.19 593.04 828.79 571.04 826.89 561.17Z" fill="#536DFE"/>
<path id="Vector_116" d="M861.83 592.83L854.83 594.32L854.13 594.47C854.13 594.47 835.38 579.25 835.62 545.27C838.129 550.277 841.127 555.023 844.57 559.44C851.98 569.27 860.43 582.4 861.83 592.83Z" fill="#536DFE"/>
<path id="Vector_117" d="M864.21 596.09C863.656 596.448 863.029 596.678 862.375 596.762C861.722 596.847 861.057 596.785 860.43 596.58C842.43 592.36 848.48 533.58 848.48 533.58C849.48 534.05 850.57 541.58 854.72 551.18C862 568.17 870 591.83 864.21 596.09Z" fill="#536DFE"/>
<path id="Vector_118" d="M904.23 561.17C904.23 561.17 905.4 592.8 875.18 596.55L873.31 593.04C873.31 593.04 902.36 571.04 904.23 561.17Z" fill="#536DFE"/>
<path id="Vector_119" d="M895.57 545.27C895.79 579.27 871.43 594.47 871.43 594.47L870.73 594.32L863.73 592.83C865.12 582.4 873.59 569.27 881.01 559.44C885.207 554.086 890.104 549.32 895.57 545.27V545.27Z" fill="#536DFE"/>
<path id="Vector_120" d="M870.62 593.01C869.539 594.328 868.171 595.382 866.62 596.09C866.148 596.302 865.655 596.467 865.15 596.58C860.71 597.58 859.15 594.42 859.41 588.98C859.83 579.29 865.92 562.49 871.41 549.98C875.35 540.92 881.78 534.06 882.74 533.61C882.68 533.56 882.41 579.35 870.62 593.01Z" fill="#536DFE"/>
<path id="Vector_121" d="M865.58 512.94C865.58 512.94 845.43 584.4 862.77 595.18C880.11 605.96 870.03 519.27 865.58 512.94Z" fill="#536DFE"/>
<path id="Vector_122" opacity="0.1" d="M826.89 561.17C826.89 561.17 820.1 592.8 850.32 596.55L852.19 593.04C852.19 593.04 828.79 571.04 826.89 561.17Z" fill="black"/>
<path id="Vector_123" opacity="0.1" d="M861.83 592.83L854.83 594.32L854.13 594.47C854.13 594.47 835.38 579.25 835.62 545.27C838.129 550.277 841.127 555.023 844.57 559.44C851.98 569.27 860.43 582.4 861.83 592.83Z" fill="black"/>
<path id="Vector_124" opacity="0.1" d="M864.21 596.09C863.656 596.448 863.029 596.678 862.375 596.762C861.722 596.847 861.057 596.785 860.43 596.58C842.43 592.36 848.48 533.58 848.48 533.58C849.48 534.05 850.57 541.58 854.72 551.18C862 568.17 870 591.83 864.21 596.09Z" fill="black"/>
<path id="Vector_125" opacity="0.1" d="M904.23 561.17C904.23 561.17 905.4 592.8 875.18 596.55L873.31 593.04C873.31 593.04 902.36 571.04 904.23 561.17Z" fill="black"/>
<path id="Vector_126" opacity="0.1" d="M895.57 545.27C895.79 579.27 871.43 594.47 871.43 594.47L870.73 594.32L863.73 592.83C865.12 582.4 873.59 569.27 881.01 559.44C885.207 554.086 890.104 549.32 895.57 545.27V545.27Z" fill="black"/>
<path id="Vector_127" opacity="0.1" d="M870.62 593.01C869.539 594.328 868.171 595.382 866.62 596.09C866.148 596.302 865.655 596.467 865.15 596.58C860.71 597.58 859.15 594.42 859.41 588.98C859.83 579.29 865.92 562.49 871.41 549.98C875.35 540.92 881.78 534.06 882.74 533.61C882.68 533.56 882.41 579.35 870.62 593.01Z" fill="black"/>
<path id="Vector_128" opacity="0.1" d="M865.58 512.94C865.58 512.94 845.43 584.4 862.77 595.18C880.11 605.96 870.03 519.27 865.58 512.94Z" fill="black"/>
<path id="Vector_129" d="M826.89 561.17C826.89 561.17 822.89 592.8 853.13 596.55L855 593.04C855 593.04 828.79 571.04 826.89 561.17Z" fill="#536DFE"/>
<path id="Vector_130" d="M864.64 592.83L857.64 594.32L856.93 594.47C856.93 594.47 835.37 579.25 835.61 545.27C835.61 545.27 841.13 551.19 847.37 559.44C854.79 569.27 863.24 582.4 864.64 592.83Z" fill="#536DFE"/>
<path id="Vector_131" opacity="0.1" d="M864.64 592.83L857.64 594.32C850.97 588.47 848.33 573.2 847.37 559.44C854.79 569.27 863.24 582.4 864.64 592.83Z" fill="black"/>
<path id="Vector_132" d="M867.02 596.09C866.466 596.448 865.839 596.678 865.185 596.762C864.531 596.847 863.867 596.785 863.24 596.58C845.19 592.36 848.48 533.58 848.48 533.58C849.48 534.05 853.38 541.58 857.48 551.18C864.81 568.17 872.81 591.83 867.02 596.09Z" fill="#536DFE"/>
<path id="Vector_133" d="M904.23 561.17C904.23 561.17 908.23 592.8 877.99 596.55L876.12 593.04C876.12 593.04 902.36 571.04 904.23 561.17Z" fill="#536DFE"/>
<path id="Vector_134" d="M895.57 545.27C895.79 579.27 874.24 594.47 874.24 594.47L873.54 594.32L866.54 592.83C867.94 582.4 876.4 569.27 883.82 559.44C890.04 551.17 895.57 545.27 895.57 545.27Z" fill="#536DFE"/>
<path id="Vector_135" opacity="0.1" d="M883.79 559.44C882.89 572.28 880.54 586.44 874.84 593.01C874.442 593.481 874.008 593.919 873.54 594.32L866.54 592.83C867.89 582.4 876.37 569.27 883.79 559.44Z" fill="black"/>
<path id="Vector_136" d="M873.43 593.01C872.349 594.328 870.981 595.382 869.43 596.09C868.954 596.302 868.459 596.467 867.95 596.58C863.51 597.58 861.95 594.42 862.21 588.98C862.64 579.29 868.72 562.49 874.21 549.98C878.15 540.92 881.77 534.06 882.73 533.61C882.68 533.56 885.22 579.35 873.43 593.01Z" fill="#536DFE"/>
<path id="Vector_137" opacity="0.1" d="M867.02 596.09C865.999 596.085 865.005 595.767 864.17 595.18C855.68 589.89 855.51 570.04 857.53 551.18C864.81 568.17 872.81 591.83 867.02 596.09Z" fill="black"/>
<path id="Vector_138" opacity="0.1" d="M873.43 593.01C872.43 595.12 871.14 596.24 869.43 596.09C868.565 595.975 867.737 595.663 867.01 595.18C864.805 593.662 863.127 591.495 862.21 588.98C862.64 579.29 868.72 562.49 874.21 549.98C876.11 567.37 876.76 585.86 873.43 593.01Z" fill="black"/>
<path id="Vector_139" d="M865.58 512.94C865.58 512.94 848.24 584.4 865.58 595.18C882.92 605.96 870.03 519.27 865.58 512.94Z" fill="#536DFE"/>
<path id="Vector_140" d="M898.85 591.66H826.69V603.61H837.7L837.97 605.02L842.38 628.21H884.33L888.74 605.02L889.01 603.61H898.85V591.66Z" fill="#D4DFEC"/>
<path id="Vector_141" opacity="0.1" d="M898.82 591.66H826.66V603.61H837.67L837.94 605.02L842.35 628.21H884.3L888.71 605.02L888.98 603.61H898.82V591.66Z" fill="black"/>
<path id="Vector_142" d="M892.76 598.69L891.55 605.02L887.14 628.21H845.19L840.78 605.02L839.57 598.69H892.76Z" fill="#D4DFEC"/>
<path id="Vector_143" opacity="0.1" d="M892.76 598.69L891.55 605.02H840.78L839.57 598.69H892.76Z" fill="black"/>
<path id="Vector_144" d="M901.66 591.66H829.5V603.61H901.66V591.66Z" fill="#D4DFEC"/>
<path id="Vector_145" d="M285.62 515.17C284.593 516.58 283.772 518.129 283.18 519.77C283.03 520.17 282.88 520.63 282.73 521.07C282.46 520.938 282.174 520.84 281.88 520.78C280.633 520.463 279.343 520.351 278.06 520.45C278.06 519.95 278.11 519.45 278.13 518.88C278.29 513.22 277.62 505.35 272.23 508.68C267.06 511.9 270.75 517.24 274.09 520.68C274.38 520.98 274.66 521.25 274.94 521.52C271.94 523.71 271.32 528.74 270.81 534.01C270.3 539.28 265.81 545.01 262.87 548.31C262.58 548.64 262.3 548.94 262.03 549.22C260.834 548.258 259.446 547.562 257.96 547.179C256.473 546.796 254.922 546.735 253.41 547L253.01 545.54C250.61 536.87 245.62 521.85 239.26 518.54L240.1 517.48C242.8 513.94 245.84 508.69 241.35 507.35C236.86 506.01 236.45 511.9 236.7 516.35C236.7 516.9 236.78 517.43 236.83 517.92C235.931 517.962 235.049 518.187 234.239 518.58C233.43 518.974 232.708 519.528 232.12 520.21C231.91 519.95 231.68 519.68 231.43 519.39C227.79 515.08 221.1 508.27 219.08 513.39C217.2 518.19 223.08 524.39 227.22 528.05L227.48 528.27C224.7 539.55 236.82 548.73 243.36 552.75C243.65 552.94 243.93 553.11 244.2 553.27C235.2 563.88 229.63 583.78 229.63 583.78L254.89 588.37C254.89 588.37 271.62 573.94 269.48 560.37H269.65C286.36 557.02 290.16 539.2 287.56 528.62L287.85 528.5C290.893 527.253 293.56 525.237 295.59 522.65C300.23 516.17 290.42 508.82 285.62 515.17Z" fill="#536DFE"/>
<path id="Vector_146" opacity="0.1" d="M285.62 515.17C284.593 516.58 283.772 518.129 283.18 519.77C283.03 520.17 282.88 520.63 282.73 521.07C282.46 520.938 282.174 520.84 281.88 520.78C280.633 520.463 279.343 520.351 278.06 520.45C278.06 519.95 278.11 519.45 278.13 518.88C278.29 513.22 277.62 505.35 272.23 508.68C267.06 511.9 270.75 517.24 274.09 520.68C274.38 520.98 274.66 521.25 274.94 521.52C271.94 523.71 271.32 528.74 270.81 534.01C270.3 539.28 265.81 545.01 262.87 548.31C262.58 548.64 262.3 548.94 262.03 549.22C260.834 548.258 259.446 547.562 257.96 547.179C256.473 546.796 254.922 546.735 253.41 547L253.01 545.54C250.61 536.87 245.62 521.85 239.26 518.54L240.1 517.48C242.8 513.94 245.84 508.69 241.35 507.35C236.86 506.01 236.45 511.9 236.7 516.35C236.7 516.9 236.78 517.43 236.83 517.92C235.931 517.962 235.049 518.187 234.239 518.58C233.43 518.974 232.708 519.528 232.12 520.21C231.91 519.95 231.68 519.68 231.43 519.39C227.79 515.08 221.1 508.27 219.08 513.39C217.2 518.19 223.08 524.39 227.22 528.05L227.48 528.27C224.7 539.55 236.82 548.73 243.36 552.75C243.65 552.94 243.93 553.11 244.2 553.27C235.2 563.88 229.63 583.78 229.63 583.78L254.89 588.37C254.89 588.37 271.62 573.94 269.48 560.37H269.65C286.36 557.02 290.16 539.2 287.56 528.62L287.85 528.5C290.893 527.253 293.56 525.237 295.59 522.65C300.23 516.17 290.42 508.82 285.62 515.17Z" fill="black"/>
<path id="Vector_147" d="M235.42 522.47L232.47 531.11C232.47 531.11 230.83 529.95 228.76 528.11C224.62 524.49 218.76 518.25 220.62 513.45C222.62 508.29 229.33 515.1 232.98 519.45C234.44 521.17 235.42 522.47 235.42 522.47Z" fill="#536DFE"/>
<path id="Vector_148" d="M241.64 517.55C240.743 518.726 239.785 519.854 238.77 520.93C238.515 519.427 238.338 517.911 238.24 516.39C238 511.97 238.46 506.1 242.89 507.39C247.32 508.68 244.34 514.01 241.64 517.55Z" fill="#536DFE"/>
<path id="Vector_149" d="M279.68 518.91C279.58 521.75 279.31 524.02 279.31 524.02C278.013 523.005 276.783 521.906 275.63 520.73C272.29 517.27 268.63 511.93 273.78 508.73C279.17 505.38 279.83 513.25 279.68 518.91Z" fill="#536DFE"/>
<path id="Vector_150" d="M297.1 522.63C295.07 525.217 292.403 527.233 289.36 528.48C288.515 528.85 287.646 529.164 286.76 529.42L283.29 524.54C283.657 522.928 284.139 521.344 284.73 519.8C285.318 518.157 286.14 516.608 287.17 515.2C291.97 508.82 301.77 516.17 297.1 522.63Z" fill="#536DFE"/>
<path id="Vector_151" opacity="0.1" d="M232.98 519.43C234.44 521.15 235.42 522.43 235.42 522.43L232.47 531.07C232.47 531.07 230.83 529.91 228.76 528.07C229.221 525.304 230.362 522.696 232.08 520.48C232.38 520.12 232.68 519.77 232.98 519.43Z" fill="black"/>
<path id="Vector_152" opacity="0.1" d="M241.64 517.55C240.743 518.726 239.785 519.854 238.77 520.93C238.515 519.427 238.338 517.911 238.24 516.39C239.467 516.411 240.656 516.817 241.64 517.55V517.55Z" fill="black"/>
<path id="Vector_153" d="M256.14 551.81L248.81 555.04C247.47 554.371 246.165 553.633 244.9 552.83C237.19 548.09 221.69 536.16 232.08 522.09C242.47 508.02 251.14 533.25 254.55 545.59C255.59 549.28 256.14 551.81 256.14 551.81Z" fill="#536DFE"/>
<path id="Vector_154" opacity="0.1" d="M275.63 520.73C276.698 519.628 278.147 518.976 279.68 518.91C279.58 521.75 279.31 524.02 279.31 524.02C278.013 523.005 276.783 521.906 275.63 520.73V520.73Z" fill="black"/>
<path id="Vector_155" opacity="0.1" d="M289.36 528.48C288.515 528.85 287.646 529.164 286.76 529.42L283.29 524.54C283.657 522.928 284.139 521.344 284.73 519.8C286.97 521.11 288.62 524.37 289.36 528.48Z" fill="black"/>
<path id="Vector_156" d="M271.15 560.35C270.75 560.43 270.33 560.51 269.92 560.57C245.33 564.31 261.81 551.04 261.81 551.04C261.81 551.04 262.92 550.04 264.42 548.36C267.42 545.08 271.85 539.36 272.36 534.06C273.13 526.06 274.02 518.61 283.43 520.81C292.66 522.97 294.42 555.69 271.15 560.35Z" fill="#536DFE"/>
<path id="Vector_157" d="M270.7 621.57H223.72V633.92H270.7V621.57Z" fill="#D4DFEC"/>
<path id="Vector_158" d="M277.63 581.42H216.25V624.53H277.63V581.42Z" fill="#D4DFEC"/>
<path id="Vector_159" opacity="0.1" d="M270.7 621.57H223.72V633.92H270.7V621.57Z" fill="black"/>
<path id="Vector_160" opacity="0.1" d="M277.63 581.42H216.25V624.53H277.63V581.42Z" fill="black"/>
<path id="Vector_161" d="M273.78 621.57H226.8V633.92H273.78V621.57Z" fill="#D4DFEC"/>
<path id="Vector_162" opacity="0.1" d="M254.55 545.59C255.55 549.28 256.14 551.81 256.14 551.81L248.81 555.04C247.47 554.371 246.165 553.633 244.9 552.83C247.77 549.17 251.01 546.44 254.55 545.59Z" fill="black"/>
<path id="Vector_163" opacity="0.1" d="M271.15 560.35C270.75 560.43 270.33 560.51 269.92 560.57C245.33 564.31 261.81 551.04 261.81 551.04C261.81 551.04 262.92 550.04 264.42 548.36C269.01 552.03 270.89 556.17 271.15 560.35Z" fill="black"/>
<path id="Vector_164" d="M231.18 583.86C231.18 583.86 244.95 534.58 264.25 549.76C283.55 564.94 256.4 588.37 256.4 588.37L231.18 583.86Z" fill="#536DFE"/>
<path id="Vector_165" opacity="0.1" d="M238.13 531.36C238.981 531.36 239.67 530.671 239.67 529.82C239.67 528.969 238.981 528.28 238.13 528.28C237.279 528.28 236.59 528.969 236.59 529.82C236.59 530.671 237.279 531.36 238.13 531.36Z" fill="black"/>
<path id="Vector_166" opacity="0.1" d="M238 538.56C238.851 538.56 239.54 537.871 239.54 537.02C239.54 536.17 238.851 535.48 238 535.48C237.149 535.48 236.46 536.17 236.46 537.02C236.46 537.871 237.149 538.56 238 538.56Z" fill="black"/>
<path id="Vector_167" opacity="0.1" d="M282.78 532.77C283.631 532.77 284.32 532.08 284.32 531.23C284.32 530.379 283.631 529.69 282.78 529.69C281.929 529.69 281.24 530.379 281.24 531.23C281.24 532.08 281.929 532.77 282.78 532.77Z" fill="black"/>
<path id="Vector_168" opacity="0.1" d="M246.75 569.7C247.601 569.7 248.29 569.01 248.29 568.16C248.29 567.309 247.601 566.62 246.75 566.62C245.899 566.62 245.21 567.309 245.21 568.16C245.21 569.01 245.899 569.7 246.75 569.7Z" fill="black"/>
<path id="Vector_169" opacity="0.1" d="M279.57 544.74C280.421 544.74 281.11 544.051 281.11 543.2C281.11 542.349 280.421 541.66 279.57 541.66C278.719 541.66 278.03 542.349 278.03 543.2C278.03 544.051 278.719 544.74 279.57 544.74Z" fill="black"/>
<path id="Vector_170" opacity="0.1" d="M263.61 560.7C264.461 560.7 265.15 560.01 265.15 559.16C265.15 558.309 264.461 557.62 263.61 557.62C262.759 557.62 262.07 558.309 262.07 559.16C262.07 560.01 262.759 560.7 263.61 560.7Z" fill="black"/>
<path id="Vector_171" opacity="0.1" d="M243.41 534.44C244.261 534.44 244.95 533.751 244.95 532.9C244.95 532.05 244.261 531.36 243.41 531.36C242.559 531.36 241.87 532.05 241.87 532.9C241.87 533.751 242.559 534.44 243.41 534.44Z" fill="black"/>
<path id="Vector_172" opacity="0.1" d="M278.54 537.4C279.391 537.4 280.08 536.711 280.08 535.86C280.08 535.009 279.391 534.32 278.54 534.32C277.689 534.32 277 535.009 277 535.86C277 536.711 277.689 537.4 278.54 537.4Z" fill="black"/>
<path id="Vector_173" opacity="0.1" d="M273.26 549.37C274.111 549.37 274.8 548.681 274.8 547.83C274.8 546.979 274.111 546.29 273.26 546.29C272.409 546.29 271.72 546.979 271.72 547.83C271.72 548.681 272.409 549.37 273.26 549.37Z" fill="black"/>
<path id="Vector_174" opacity="0.1" d="M257.05 568.55C257.901 568.55 258.59 567.861 258.59 567.01C258.59 566.159 257.901 565.47 257.05 565.47C256.199 565.47 255.51 566.159 255.51 567.01C255.51 567.861 256.199 568.55 257.05 568.55Z" fill="black"/>
<path id="Vector_175" opacity="0.1" d="M253.7 560.95C254.551 560.95 255.24 560.26 255.24 559.41C255.24 558.559 254.551 557.87 253.7 557.87C252.849 557.87 252.16 558.559 252.16 559.41C252.16 560.26 252.849 560.95 253.7 560.95Z" fill="black"/>
<path id="Vector_176" opacity="0.1" d="M245.72 543.84C246.571 543.84 247.26 543.151 247.26 542.3C247.26 541.449 246.571 540.76 245.72 540.76C244.869 540.76 244.18 541.449 244.18 542.3C244.18 543.151 244.869 543.84 245.72 543.84Z" fill="black"/>
<path id="Vector_177" opacity="0.1" d="M273.78 621.57H226.8V626.08H273.78V621.57Z" fill="black"/>
<path id="Vector_178" d="M280.72 581.42H219.34V624.53H280.72V581.42Z" fill="#D4DFEC"/>
<path id="Vector_179" opacity="0.1" d="M259.11 575.5C259.961 575.5 260.65 574.811 260.65 573.96C260.65 573.11 259.961 572.42 259.11 572.42C258.259 572.42 257.57 573.11 257.57 573.96C257.57 574.811 258.259 575.5 259.11 575.5Z" fill="black"/>
<path id="Vector_180" opacity="0.1" d="M249.84 577.43C250.69 577.43 251.38 576.741 251.38 575.89C251.38 575.039 250.69 574.35 249.84 574.35C248.989 574.35 248.3 575.039 248.3 575.89C248.3 576.741 248.989 577.43 249.84 577.43Z" fill="black"/>
<g id="linux-brands 1" clip-path="url(#clip1)">
<path id="Vector_181" d="M621.786 510.429C621.853 510.463 621.906 510.545 621.987 510.545C622.06 510.545 622.174 510.518 622.181 510.442C622.194 510.347 622.054 510.285 621.967 510.244C621.853 510.196 621.705 510.176 621.598 510.237C621.571 510.251 621.545 510.285 621.558 510.312C621.578 510.401 621.712 510.388 621.786 510.429V510.429ZM620.319 510.545C620.4 510.545 620.453 510.463 620.52 510.429C620.594 510.388 620.728 510.401 620.754 510.319C620.768 510.292 620.741 510.258 620.714 510.244C620.607 510.183 620.46 510.203 620.346 510.251C620.259 510.292 620.118 510.354 620.132 510.449C620.138 510.518 620.252 510.552 620.319 510.545V510.545ZM635.125 529.604C634.884 529.33 634.77 528.811 634.643 528.257C634.522 527.703 634.382 527.108 633.94 526.726C633.853 526.65 633.766 526.582 633.672 526.527C633.585 526.473 633.491 526.425 633.397 526.391C634.013 524.524 633.772 522.665 633.15 520.983C632.386 518.926 631.054 517.128 630.036 515.897C628.891 514.428 627.779 513.033 627.799 510.976C627.833 507.838 628.141 502.007 622.723 502C615.866 501.986 617.58 509.068 617.507 511.242C617.393 512.842 617.078 514.1 616 515.665C614.734 517.203 612.953 519.685 612.109 522.275C611.708 523.499 611.52 524.743 611.694 525.919C611.259 526.315 610.931 526.924 610.583 527.3C610.301 527.594 609.893 527.703 609.444 527.867C608.996 528.031 608.507 528.277 608.205 528.858C608.065 529.125 608.018 529.412 608.018 529.706C608.018 529.973 608.058 530.246 608.098 530.513C608.179 531.066 608.266 531.586 608.152 531.935C607.804 532.919 607.757 533.603 608.004 534.102C608.259 534.601 608.768 534.819 609.35 534.942C610.509 535.188 612.083 535.127 613.321 535.797C614.647 536.508 615.993 536.761 617.065 536.508C617.842 536.33 618.478 535.852 618.799 535.127C619.636 535.12 620.56 534.758 622.033 534.676C623.031 534.594 624.283 535.038 625.723 534.956C625.763 535.113 625.817 535.271 625.891 535.414V535.421C626.446 536.562 627.484 537.082 628.589 536.993C629.701 536.904 630.873 536.241 631.824 535.086C632.734 533.965 634.234 533.5 635.232 532.885C635.728 532.577 636.129 532.194 636.163 531.634C636.19 531.073 635.868 530.451 635.125 529.604ZM621.98 507.968C622.636 506.45 624.27 506.478 624.926 507.94C625.362 508.911 625.167 510.053 624.638 510.702C624.531 510.647 624.243 510.524 623.795 510.367C623.868 510.285 624.002 510.183 624.056 510.053C624.377 509.246 624.042 508.207 623.446 508.187C622.958 508.152 622.516 508.925 622.656 509.759C622.382 509.622 622.027 509.52 621.786 509.458C621.719 508.986 621.766 508.46 621.98 507.968V507.968ZM619.254 507.182C619.931 507.182 620.647 508.152 620.533 509.472C620.299 509.54 620.058 509.643 619.85 509.786C619.931 509.178 619.629 508.412 619.208 508.446C618.645 508.494 618.551 509.896 619.087 510.367C619.154 510.422 619.214 510.354 618.692 510.743C617.647 509.745 617.989 507.182 619.254 507.182V507.182ZM618.344 511.331C618.759 511.017 619.254 510.647 619.288 510.613C619.603 510.312 620.192 509.643 621.156 509.643C621.632 509.643 622.201 509.8 622.891 510.251C623.312 510.531 623.647 510.552 624.404 510.887C624.967 511.126 625.321 511.55 625.107 512.131C624.933 512.616 624.371 513.115 623.587 513.368C622.844 513.614 622.261 514.462 621.029 514.387C620.768 514.373 620.56 514.318 620.386 514.243C619.85 514.004 619.569 513.532 619.047 513.218C618.471 512.89 618.163 512.507 618.062 512.172C617.969 511.837 618.062 511.557 618.344 511.331V511.331ZM618.565 534.163C618.384 536.562 615.625 536.515 613.522 535.394C611.52 534.313 608.929 534.949 608.4 533.896C608.239 533.575 608.239 533.028 608.574 532.092V532.078C608.734 531.559 608.614 530.984 608.533 530.444C608.453 529.911 608.413 529.419 608.594 529.077C608.828 528.619 609.163 528.455 609.585 528.305C610.275 528.052 610.375 528.072 610.897 527.628C611.266 527.238 611.533 526.746 611.855 526.397C612.196 526.021 612.525 525.844 613.04 525.926C613.583 526.008 614.051 526.391 614.507 527.02L615.819 529.453C616.455 530.813 618.705 532.762 618.565 534.163V534.163ZM618.471 532.393C618.196 531.941 617.828 531.463 617.507 531.053C617.982 531.053 618.458 530.902 618.625 530.444C618.779 530.021 618.625 529.426 618.129 528.742C617.225 527.498 615.565 526.521 615.565 526.521C614.661 525.946 614.152 525.242 613.917 524.477C613.683 523.711 613.717 522.884 613.897 522.07C614.246 520.505 615.143 518.98 615.719 518.023C615.873 517.907 615.772 518.242 615.136 519.445C614.567 520.546 613.502 523.089 614.962 525.078C615.002 523.663 615.33 522.221 615.886 520.874C616.69 519.001 618.384 515.754 618.518 513.17C618.592 513.225 618.826 513.389 618.933 513.45C619.241 513.635 619.475 513.908 619.777 514.154C620.607 514.838 621.685 514.783 622.616 514.236C623.031 513.997 623.366 513.724 623.681 513.621C624.344 513.409 624.873 513.033 625.174 512.596C625.69 514.674 626.895 517.675 627.665 519.138C628.074 519.917 628.891 521.564 629.246 523.554C629.467 523.547 629.714 523.581 629.975 523.649C630.9 521.209 629.192 518.577 628.415 517.846C628.1 517.531 628.087 517.395 628.241 517.401C629.085 518.167 630.196 519.705 630.598 521.435C630.786 522.228 630.819 523.055 630.625 523.875C631.723 524.34 633.029 525.099 632.681 526.254C632.533 526.247 632.467 526.254 632.4 526.254C632.614 525.563 632.138 525.051 630.873 524.47C629.56 523.882 628.462 523.882 628.308 525.324C627.498 525.611 627.083 526.329 626.875 527.19C626.687 527.956 626.634 528.879 626.58 529.918C626.547 530.444 626.339 531.148 626.125 531.9C623.975 533.466 620.989 534.149 618.471 532.393V532.393ZM635.708 531.606C635.647 532.755 632.949 532.967 631.475 534.785C630.592 535.858 629.507 536.453 628.556 536.528C627.605 536.604 626.781 536.2 626.299 535.209C625.984 534.45 626.138 533.63 626.373 532.728C626.621 531.757 626.989 530.759 627.036 529.952C627.089 528.913 627.15 528.004 627.317 527.307C627.491 526.603 627.759 526.131 628.234 525.864C628.254 525.851 628.281 525.844 628.301 525.83C628.355 526.732 628.79 527.648 629.56 527.847C630.404 528.072 631.616 527.334 632.132 526.732C632.734 526.712 633.183 526.671 633.645 527.081C634.308 527.662 634.121 529.152 634.79 529.925C635.5 530.718 635.728 531.258 635.708 531.606ZM618.605 512.165C618.739 512.295 618.92 512.473 619.141 512.65C619.583 513.006 620.199 513.375 620.969 513.375C621.746 513.375 622.475 512.972 623.098 512.637C623.426 512.459 623.828 512.158 624.089 511.926C624.35 511.693 624.484 511.495 624.297 511.475C624.109 511.454 624.123 511.652 623.895 511.823C623.6 512.042 623.246 512.329 622.964 512.493C622.469 512.78 621.658 513.19 620.962 513.19C620.266 513.19 619.71 512.862 619.295 512.527C619.087 512.356 618.913 512.186 618.779 512.056C618.679 511.96 618.652 511.741 618.491 511.721C618.397 511.714 618.371 511.974 618.605 512.165V512.165Z" fill="black"/>
</g>
<g id="github-brands 1">
<path id="Vector_182" d="M443.7 609.285C443.7 609.402 443.565 609.496 443.396 609.496C443.203 609.514 443.068 609.42 443.068 609.285C443.068 609.168 443.203 609.074 443.372 609.074C443.548 609.057 443.7 609.15 443.7 609.285ZM441.881 609.021C441.841 609.139 441.957 609.273 442.133 609.309C442.285 609.367 442.46 609.309 442.495 609.191C442.53 609.074 442.419 608.939 442.244 608.887C442.092 608.846 441.922 608.904 441.881 609.021ZM444.466 608.922C444.296 608.963 444.179 609.074 444.197 609.209C444.214 609.326 444.366 609.402 444.542 609.361C444.711 609.32 444.828 609.209 444.811 609.092C444.793 608.98 444.635 608.904 444.466 608.922ZM448.313 586.469C440.203 586.469 434 592.639 434 600.766C434 607.264 438.081 612.824 443.91 614.781C444.659 614.916 444.922 614.453 444.922 614.072C444.922 613.709 444.904 611.705 444.904 610.475C444.904 610.475 440.811 611.354 439.952 608.729C439.952 608.729 439.285 607.023 438.327 606.584C438.327 606.584 436.988 605.664 438.42 605.682C438.42 605.682 439.876 605.799 440.677 607.193C441.957 609.455 444.103 608.805 444.939 608.418C445.074 607.48 445.454 606.83 445.875 606.443C442.606 606.08 439.309 605.605 439.309 599.969C439.309 598.357 439.753 597.549 440.689 596.518C440.537 596.137 440.04 594.566 440.841 592.539C442.063 592.158 444.875 594.121 444.875 594.121C446.044 593.793 447.301 593.623 448.547 593.623C449.792 593.623 451.049 593.793 452.219 594.121C452.219 594.121 455.031 592.152 456.253 592.539C457.054 594.572 456.557 596.137 456.405 596.518C457.34 597.555 457.913 598.363 457.913 599.969C457.913 605.623 454.47 606.074 451.201 606.443C451.739 606.906 452.195 607.785 452.195 609.162C452.195 611.137 452.178 613.58 452.178 614.061C452.178 614.441 452.447 614.904 453.189 614.77C459.036 612.824 463 607.264 463 600.766C463 592.639 456.422 586.469 448.313 586.469ZM439.683 606.678C439.607 606.736 439.625 606.871 439.724 606.982C439.818 607.076 439.952 607.117 440.028 607.041C440.104 606.982 440.086 606.848 439.987 606.736C439.894 606.643 439.759 606.602 439.683 606.678ZM439.052 606.203C439.011 606.279 439.069 606.373 439.186 606.432C439.28 606.49 439.397 606.473 439.438 606.391C439.478 606.314 439.42 606.221 439.303 606.162C439.186 606.127 439.093 606.145 439.052 606.203ZM440.946 608.289C440.852 608.365 440.887 608.541 441.022 608.652C441.156 608.787 441.326 608.805 441.402 608.711C441.478 608.635 441.443 608.459 441.326 608.348C441.197 608.213 441.022 608.195 440.946 608.289ZM440.279 607.428C440.186 607.486 440.186 607.639 440.279 607.773C440.373 607.908 440.531 607.967 440.607 607.908C440.7 607.832 440.7 607.68 440.607 607.545C440.525 607.41 440.373 607.352 440.279 607.428Z" fill="#5C1B8F"/>
</g>
<g id="js-square-brands 1">
<path id="Vector_183" d="M581.75 545.562H565.25C564.008 545.562 563 546.612 563 547.906V565.094C563 566.388 564.008 567.438 565.25 567.438H581.75C582.992 567.438 584 566.388 584 565.094V547.906C584 546.612 582.992 545.562 581.75 545.562ZM574.428 562.623C574.428 564.752 573.228 565.724 571.48 565.724C569.9 565.724 568.986 564.874 568.517 563.844L570.125 562.833C570.434 563.404 570.716 563.888 571.395 563.888C572.042 563.888 572.455 563.624 572.455 562.594V555.606H574.428V562.623V562.623ZM579.097 565.724C577.264 565.724 576.078 564.815 575.502 563.624L577.109 562.657C577.531 563.375 578.084 563.907 579.055 563.907C579.87 563.907 580.395 563.482 580.395 562.892C580.395 562.188 579.861 561.939 578.956 561.524L578.464 561.305C577.039 560.675 576.097 559.879 576.097 558.204C576.097 556.661 577.227 555.489 578.984 555.489C580.241 555.489 581.141 555.943 581.787 557.135L580.25 558.16C579.913 557.53 579.547 557.281 578.98 557.281C578.403 557.281 578.037 557.662 578.037 558.16C578.037 558.775 578.403 559.024 579.252 559.41L579.744 559.63C581.422 560.377 582.364 561.144 582.364 562.862C582.364 564.708 580.967 565.724 579.097 565.724V565.724Z" fill="#EBD403"/>
</g>
<g id="css3-alt-brands 1">
<path id="Vector_184" d="M605 582.25L606.363 597.711L612.5 599.75L618.637 597.711L620 582.25H605ZM617.23 585.375L617.043 587.223L612.539 589.148L612.527 589.152H616.883L616.383 594.879L612.547 596L608.688 594.859L608.438 591.973H610.348L610.473 593.469L612.527 593.988L614.664 593.387L614.809 590.98L608.313 590.961V590.957L608.305 590.961L608.164 589.152L612.543 587.328L612.797 587.223H607.996L607.77 585.375H617.23Z" fill="#1635DB"/>
</g>
<g id="html5-brands 1">
<path id="Vector_185" d="M624 589.25L625.363 604.711L631.48 606.75L637.637 604.711L639 589.25H624ZM636.039 594.246H628.859L629.02 596.176H635.879L635.348 601.973L631.523 603.027V603.039H631.48L627.625 601.973L627.391 599.012H629.254L629.391 600.5L631.48 601.066L633.578 600.5L633.812 598.07H627.293L626.793 592.383H636.211L636.039 594.246V594.246Z" fill="#C11313"/>
</g>
<g id="react-brands 1">
<path id="Vector_186" d="M548.954 510.421C548.606 510.305 548.258 510.196 547.91 510.092C547.968 509.854 548.02 509.615 548.071 509.377C548.864 505.536 548.342 502.448 546.582 501.43C544.887 500.457 542.122 501.469 539.325 503.905C539.048 504.143 538.777 504.395 538.519 504.646C538.345 504.479 538.165 504.311 537.984 504.15C535.052 501.546 532.113 500.45 530.353 501.475C528.664 502.455 528.162 505.362 528.871 508.997C528.942 509.358 529.019 509.712 529.109 510.073C528.697 510.189 528.291 510.318 527.91 510.453C524.469 511.646 522 513.528 522 515.474C522 517.485 524.63 519.503 528.207 520.727C528.497 520.824 528.787 520.921 529.083 521.004C528.987 521.391 528.903 521.771 528.826 522.164C528.149 525.742 528.677 528.578 530.366 529.551C532.106 530.556 535.032 529.525 537.881 527.031C538.107 526.831 538.332 526.625 538.558 526.405C538.842 526.683 539.138 526.947 539.435 527.205C542.193 529.577 544.92 530.537 546.602 529.564C548.342 528.558 548.909 525.51 548.174 521.797C548.116 521.513 548.052 521.223 547.981 520.927C548.187 520.869 548.387 520.804 548.587 520.74C552.306 519.509 555 517.517 555 515.474C555 513.521 552.461 511.626 548.954 510.421V510.421ZM540.234 504.949C542.631 502.861 544.868 502.042 545.886 502.629C546.976 503.254 547.395 505.78 546.711 509.1C546.666 509.319 546.621 509.532 546.563 509.744C545.132 509.422 543.682 509.19 542.225 509.061C541.387 507.862 540.472 506.715 539.48 505.639C539.731 505.4 539.976 505.175 540.234 504.949V504.949ZM532.777 518.819C533.105 519.38 533.44 519.941 533.795 520.489C532.789 520.379 531.79 520.218 530.804 520.005C531.088 519.077 531.442 518.117 531.855 517.137C532.151 517.704 532.454 518.265 532.777 518.819V518.819ZM530.824 511.066C531.752 510.859 532.738 510.692 533.763 510.563C533.421 511.098 533.086 511.646 532.77 512.2C532.454 512.748 532.145 513.309 531.855 513.876C531.449 512.915 531.107 511.974 530.824 511.066ZM532.59 515.506C533.015 514.617 533.479 513.747 533.969 512.89C534.459 512.032 534.987 511.201 535.542 510.382C536.508 510.312 537.495 510.273 538.5 510.273C539.505 510.273 540.498 510.312 541.458 510.382C542.006 511.195 542.528 512.026 543.025 512.877C543.521 513.728 543.985 514.598 544.423 515.481C543.991 516.37 543.527 517.247 543.031 518.11C542.541 518.968 542.019 519.799 541.471 520.624C540.511 520.695 539.512 520.727 538.5 520.727C537.488 520.727 536.508 520.695 535.561 520.637C535 519.818 534.472 518.98 533.975 518.123C533.479 517.266 533.021 516.396 532.59 515.506ZM544.23 518.806C544.559 518.239 544.868 517.666 545.171 517.086C545.583 518.02 545.944 518.968 546.26 519.941C545.261 520.166 544.249 520.34 543.231 520.456C543.579 519.915 543.908 519.361 544.23 518.806ZM545.158 513.876C544.855 513.309 544.546 512.741 544.223 512.187C543.908 511.639 543.579 511.098 543.237 510.563C544.275 510.692 545.268 510.866 546.196 511.079C545.899 512.032 545.551 512.961 545.158 513.876V513.876ZM538.513 506.625C539.19 507.36 539.828 508.133 540.421 508.932C539.145 508.874 537.862 508.874 536.586 508.932C537.217 508.101 537.868 507.327 538.513 506.625ZM531.036 502.674C532.119 502.042 534.523 502.945 537.056 505.187C537.217 505.329 537.379 505.484 537.546 505.639C536.547 506.715 535.625 507.862 534.781 509.061C533.324 509.19 531.881 509.416 530.45 509.731C530.366 509.403 530.295 509.068 530.224 508.732C529.618 505.613 530.018 503.26 531.036 502.674V502.674ZM529.457 519.664C529.187 519.586 528.922 519.503 528.658 519.412C527.285 518.98 525.725 518.297 524.597 517.401C523.946 516.95 523.508 516.254 523.386 515.474C523.386 514.295 525.422 512.787 528.362 511.762C528.729 511.633 529.103 511.517 529.477 511.407C529.915 512.806 530.443 514.179 531.056 515.506C530.437 516.854 529.902 518.246 529.457 519.664V519.664ZM536.972 525.98C535.909 526.953 534.678 527.727 533.337 528.255C532.622 528.597 531.797 528.629 531.062 528.339C530.037 527.746 529.612 525.471 530.192 522.409C530.263 522.048 530.34 521.687 530.43 521.333C531.874 521.642 533.331 521.855 534.807 521.965C535.658 523.17 536.592 524.324 537.591 525.406C537.385 525.606 537.179 525.8 536.972 525.98ZM538.552 524.414C537.894 523.705 537.237 522.919 536.599 522.074C537.217 522.1 537.855 522.113 538.5 522.113C539.164 522.113 539.815 522.1 540.459 522.068C539.866 522.886 539.228 523.666 538.552 524.414V524.414ZM546.976 526.347C546.918 527.134 546.531 527.869 545.912 528.365C544.887 528.958 542.702 528.184 540.343 526.161C540.073 525.929 539.802 525.677 539.525 525.419C540.511 524.33 541.42 523.176 542.245 521.965C543.721 521.842 545.19 521.617 546.64 521.288C546.705 521.552 546.763 521.816 546.814 522.074C547.13 523.466 547.182 524.917 546.976 526.347V526.347ZM548.149 519.419C547.968 519.477 547.788 519.535 547.601 519.586C547.15 518.181 546.595 516.808 545.957 515.474C546.576 514.159 547.098 512.806 547.536 511.42C547.871 511.517 548.194 511.62 548.503 511.723C551.507 512.754 553.614 514.288 553.614 515.461C553.614 516.725 551.365 518.355 548.149 519.419ZM538.5 518.452C540.131 518.452 541.452 517.131 541.452 515.5C541.452 513.869 540.131 512.548 538.5 512.548C536.869 512.548 535.548 513.869 535.548 515.5C535.548 517.131 536.869 518.452 538.5 518.452Z" fill="#2E346C"/>
</g>
<g id="aws-brands 1" clip-path="url(#clip2)">
<path id="Vector_187" d="M533.765 602.93C533.738 603.815 534.163 604.207 534.173 604.455C534.168 604.506 534.152 604.555 534.125 604.597C534.098 604.64 534.062 604.675 534.02 604.7L533.54 605.05C533.478 605.096 533.404 605.122 533.329 605.125C533.312 605.125 533.021 605.197 532.561 604.125C532.279 604.491 531.922 604.784 531.515 604.984C531.108 605.183 530.662 605.283 530.213 605.275C529.602 605.31 527.948 604.914 528.033 603.08C527.973 601.584 529.31 600.655 530.693 600.734C530.959 600.735 531.503 600.748 532.455 600.979V600.369C532.556 599.335 531.904 598.533 530.774 598.654C530.684 598.654 530.047 598.634 529.055 599.048C528.779 599.18 528.744 599.159 528.652 599.159C528.374 599.159 528.489 598.32 528.542 598.213C528.737 597.963 529.887 597.496 531.015 597.503C531.769 597.434 532.519 597.676 533.103 598.178C533.341 598.455 533.522 598.779 533.636 599.13C533.749 599.482 533.794 599.854 533.766 600.223L533.765 602.93V602.93ZM530.525 604.195C531.741 604.177 532.256 603.415 532.373 603.005C532.465 602.613 532.45 602.364 532.45 601.935C532.087 601.844 531.565 601.745 530.966 601.745C530.398 601.7 529.361 601.964 529.401 603.005C529.355 603.661 529.818 604.231 530.525 604.195V604.195ZM536.934 605.096C536.639 605.124 536.502 604.906 536.459 604.691L534.591 598.259C534.555 598.15 534.531 598.038 534.519 597.924C534.512 597.877 534.524 597.829 534.551 597.79C534.578 597.752 534.619 597.726 534.664 597.719C534.673 597.717 534.584 597.719 535.498 597.719C535.828 597.684 535.935 597.954 535.969 598.124L537.308 603.625L538.552 598.124C538.572 597.998 538.662 597.691 539.032 597.724H539.675C539.757 597.717 540.092 597.704 540.151 598.129L541.404 603.7L542.787 598.129C542.805 598.044 542.889 597.685 543.262 597.724H544.002C544.034 597.719 544.232 597.692 544.199 598.059C544.183 598.131 544.327 597.643 542.221 604.696C542.177 604.911 542.04 605.129 541.745 605.101H541.044C540.634 605.146 540.575 604.723 540.569 604.681L539.325 599.324L538.096 604.675C538.09 604.718 538.031 605.14 537.62 605.095H536.934V605.096ZM547.19 605.316C546.969 605.316 545.918 605.304 545.039 604.836C544.951 604.797 544.876 604.732 544.824 604.649C544.772 604.566 544.745 604.469 544.746 604.37V603.95C544.746 603.62 544.978 603.681 545.077 603.72C545.453 603.879 545.695 603.999 546.157 604.095C547.532 604.389 548.136 604.005 548.284 603.92C548.777 603.615 548.816 602.917 548.481 602.555C548.088 602.212 547.901 602.199 546.489 601.735C546.315 601.684 544.85 601.203 544.847 599.689C544.824 598.586 545.786 597.495 547.454 597.504C547.929 597.504 549.195 597.665 549.538 598.114C549.588 598.196 549.613 598.292 549.61 598.389V598.784C549.61 598.957 549.549 599.044 549.427 599.044C549.138 599.011 548.625 598.608 547.583 598.624C547.325 598.61 546.088 598.66 546.143 599.6C546.127 600.34 547.141 600.618 547.257 600.65C548.624 601.079 549.081 601.15 549.624 601.805C550.267 602.675 549.92 603.692 549.787 603.971C549.071 605.436 547.221 605.316 547.19 605.316V605.316ZM548.697 609.412C546.071 611.432 542.259 612.507 539.004 612.507C534.612 612.538 530.368 610.855 527.106 607.791C526.861 607.561 527.077 607.246 527.375 607.421C530.993 609.577 535.09 610.71 539.258 610.707C542.371 610.69 545.45 610.032 548.318 608.772C548.759 608.577 549.134 609.077 548.697 609.412V609.412ZM549.792 608.111C549.456 607.661 547.569 607.901 546.724 608.006C546.469 608.036 546.426 607.806 546.657 607.636C548.159 606.536 550.627 606.851 550.911 607.221C551.194 607.591 550.834 610.167 549.427 611.397C549.211 611.588 549.005 611.487 549.101 611.237C549.417 610.407 550.128 608.562 549.792 608.111Z" fill="#D7C983"/>
</g>
<path id="Vector_188" d="M490.78 566C490.656 566 490.531 565.965 490.418 565.906L489.278 565.237C489.106 565.143 489.189 565.108 489.248 565.091C489.474 565.014 489.522 564.997 489.765 564.856C489.789 564.844 489.824 564.85 489.848 564.862L490.727 565.378C490.757 565.396 490.804 565.396 490.834 565.378L494.266 563.418C494.295 563.401 494.319 563.365 494.319 563.324V559.411C494.319 559.37 494.301 559.334 494.266 559.317L490.834 557.363C490.804 557.345 490.762 557.345 490.727 557.363L487.295 559.317C487.259 559.334 487.242 559.376 487.242 559.411V563.324C487.242 563.36 487.265 563.395 487.295 563.412L488.233 563.946C488.744 564.199 489.058 563.899 489.058 563.606V559.739C489.058 559.686 489.1 559.64 489.159 559.64H489.593C489.646 559.64 489.694 559.681 489.694 559.739V563.606C489.694 564.281 489.326 564.662 488.678 564.662C488.482 564.662 488.322 564.662 487.889 564.451L486.986 563.94C486.767 563.811 486.624 563.577 486.624 563.324V559.411C486.624 559.158 486.761 558.918 486.986 558.795L490.418 556.835C490.638 556.712 490.923 556.712 491.137 556.835L494.568 558.795C494.788 558.924 494.931 559.158 494.931 559.411V563.324C494.931 563.577 494.794 563.817 494.568 563.94L491.137 565.9C491.036 565.965 490.911 566 490.78 566V566ZM493.553 562.139C493.553 561.406 493.054 561.212 491.997 561.071C490.929 560.93 490.822 560.86 490.822 560.614C490.822 560.408 490.911 560.138 491.701 560.138C492.407 560.138 492.668 560.291 492.775 560.76C492.787 560.807 492.823 560.837 492.87 560.837H493.316C493.345 560.837 493.369 560.825 493.387 560.807C493.405 560.784 493.417 560.76 493.411 560.731C493.339 559.921 492.799 559.546 491.701 559.546C490.721 559.546 490.139 559.956 490.139 560.637C490.139 561.382 490.721 561.582 491.659 561.676C492.781 561.787 492.87 561.946 492.87 562.163C492.87 562.544 492.562 562.702 491.837 562.702C490.929 562.702 490.727 562.479 490.662 562.034C490.656 561.987 490.614 561.951 490.561 561.951H490.115C490.062 561.951 490.014 561.992 490.014 562.051C490.014 562.62 490.329 563.301 491.831 563.301C492.93 563.301 493.553 562.878 493.553 562.139V562.139ZM496.789 559.199C496.789 559.557 496.492 559.851 496.13 559.851C495.768 559.851 495.471 559.557 495.471 559.199C495.471 558.83 495.78 558.548 496.13 558.548C496.486 558.542 496.789 558.83 496.789 559.199ZM496.682 559.199C496.682 558.894 496.433 558.654 496.124 558.654C495.821 558.654 495.572 558.894 495.572 559.199C495.572 559.505 495.821 559.751 496.124 559.751C496.433 559.745 496.682 559.499 496.682 559.199ZM496.415 559.563H496.261C496.255 559.528 496.231 559.34 496.231 559.334C496.219 559.293 496.207 559.27 496.154 559.27H496.023V559.563H495.881V558.83H496.136C496.225 558.83 496.397 558.83 496.397 559.023C496.397 559.158 496.308 559.188 496.255 559.205C496.356 559.211 496.362 559.276 496.379 559.37C496.385 559.428 496.397 559.528 496.415 559.563V559.563ZM496.249 559.047C496.249 558.947 496.178 558.947 496.142 558.947H496.023V559.153H496.136C496.231 559.153 496.249 559.088 496.249 559.047V559.047ZM480.152 550.686C480.152 550.527 480.069 550.386 479.933 550.31L476.293 548.239C476.233 548.204 476.162 548.186 476.091 548.18H476.055C475.984 548.18 475.919 548.204 475.853 548.239L472.22 550.31C472.083 550.386 472 550.533 472 550.686L472.006 556.26C472.006 556.336 472.047 556.407 472.113 556.448C472.178 556.489 472.261 556.489 472.332 556.448L474.494 555.221C474.63 555.139 474.713 554.998 474.713 554.846V552.241C474.713 552.088 474.797 551.941 474.933 551.865L475.853 551.343C475.925 551.302 475.996 551.284 476.073 551.284C476.15 551.284 476.228 551.302 476.293 551.343L477.213 551.865C477.35 551.941 477.433 552.088 477.433 552.241V554.846C477.433 554.998 477.516 555.145 477.652 555.221L479.814 556.448C479.879 556.489 479.968 556.489 480.033 556.448C480.099 556.412 480.14 556.336 480.14 556.26L480.152 550.686ZM500.055 544.601V554.951C500.055 555.104 499.972 555.251 499.835 555.327L496.195 557.404C496.059 557.48 495.893 557.48 495.756 557.404L492.116 555.327C491.98 555.251 491.897 555.104 491.897 554.951V550.797C491.897 550.645 491.98 550.498 492.116 550.422L495.756 548.344C495.893 548.268 496.059 548.268 496.195 548.344L497.104 548.861C497.205 548.92 497.335 548.843 497.335 548.732V543.216C497.335 543.052 497.513 542.946 497.662 543.028L499.829 544.225C499.966 544.296 500.055 544.443 500.055 544.601V544.601ZM497.323 552.164C497.323 552.123 497.3 552.088 497.27 552.07L496.023 551.355C495.988 551.337 495.946 551.337 495.91 551.355L494.663 552.07C494.628 552.088 494.61 552.123 494.61 552.164V553.59C494.61 553.631 494.634 553.666 494.663 553.684L495.91 554.394C495.946 554.412 495.987 554.412 496.017 554.394L497.264 553.684C497.3 553.666 497.317 553.631 497.317 553.59V552.164H497.323ZM509.78 552.123C509.917 552.047 510 551.9 510 551.748V550.744C510 550.592 509.917 550.445 509.78 550.369L506.164 548.292C506.028 548.215 505.862 548.215 505.725 548.292L502.085 550.369C501.949 550.445 501.866 550.592 501.866 550.744V554.899C501.866 555.057 501.949 555.198 502.085 555.274L505.701 557.31C505.832 557.386 505.998 557.386 506.135 557.31L508.32 556.107C508.468 556.025 508.468 555.814 508.32 555.732L504.656 553.655C504.585 553.614 504.543 553.543 504.543 553.467V552.164C504.543 552.088 504.585 552.018 504.656 551.977L505.796 551.325C505.862 551.284 505.951 551.284 506.016 551.325L507.156 551.977C507.221 552.018 507.269 552.088 507.269 552.164V553.185C507.269 553.35 507.453 553.455 507.601 553.373L509.78 552.123V552.123ZM505.191 552.329C505.167 552.346 505.149 552.37 505.149 552.399V553.197C505.149 553.226 505.167 553.256 505.191 553.267L505.891 553.666C505.915 553.684 505.951 553.684 505.974 553.666L506.675 553.267C506.699 553.25 506.717 553.226 506.717 553.197V552.399C506.717 552.37 506.699 552.34 506.675 552.329L505.974 551.93C505.951 551.912 505.915 551.912 505.891 551.93L505.191 552.329ZM490.097 554.881V550.75C490.097 550.598 490.002 550.451 489.866 550.375L486.238 548.309C486.113 548.239 485.941 548.227 485.799 548.309L482.171 550.375C482.034 550.451 481.939 550.592 481.939 550.75V554.881C481.939 555.045 482.052 555.186 482.177 555.256L485.811 557.322C485.953 557.404 486.119 557.398 486.25 557.322L489.872 555.256C489.979 555.198 490.056 555.098 490.086 554.981C490.092 554.951 490.097 554.916 490.097 554.881ZM485.686 547.552L485.638 547.582H485.704L485.686 547.552V547.552ZM490.21 555.192L490.187 555.151V555.204L490.21 555.192Z" fill="#1A511F"/>
<g id="gitlab-brands 1" clip-path="url(#clip3)">
<path id="Vector_189" d="M449.726 502.119C449.587 501.719 449.021 501.719 448.877 502.119L446.339 509.971H452.268C452.264 509.971 449.726 502.119 449.726 502.119V502.119ZM445.04 513.924C444.924 514.283 445.054 514.683 445.359 514.912L456.496 523.178L446.334 509.971L445.04 513.924ZM452.264 509.971L456.5 523.178L460.736 509.971H452.264ZM467.96 513.924L466.666 509.971L456.5 523.178L467.636 514.912C467.946 514.683 468.072 514.283 467.96 513.924V513.924ZM464.123 502.119C463.984 501.719 463.418 501.719 463.274 502.119L460.732 509.971H466.661L464.123 502.119Z" fill="#7D5300"/>
</g>
</g>
<defs>
<linearGradient id="paint0_linear" x1="554.89" y1="618.37" x2="554.89" y2="1.26803e-05" gradientUnits="userSpaceOnUse">
<stop offset="0.2" stop-color="#808080" stop-opacity="0.4"/>
<stop offset="0.46" stop-color="#808080" stop-opacity="0.5"/>
<stop offset="1" stop-opacity="0.6"/>
</linearGradient>
<linearGradient id="paint1_linear" x1="552.24" y1="707.8" x2="552.24" y2="147.37" gradientUnits="userSpaceOnUse">
<stop stop-color="#808080" stop-opacity="0.25"/>
<stop offset="0.54" stop-color="#808080" stop-opacity="0.12"/>
<stop offset="1" stop-color="#808080" stop-opacity="0.1"/>
</linearGradient>
<clipPath id="clip0">
<rect width="1109.79" height="748.34" fill="white"/>
</clipPath>
<clipPath id="clip1">
<rect width="30" height="35" fill="white" transform="translate(607 502)"/>
</clipPath>
<clipPath id="clip2">
<rect width="24" height="20" fill="white" transform="translate(527 595)"/>
</clipPath>
<clipPath id="clip3">
<rect width="23" height="23" fill="white" transform="translate(445 501)"/>
</clipPath>
</defs>
</svg>
